<?xml version="1.0" standalone="no"?>
<!DOCTYPE svg PUBLIC "-//W3C//DTD SVG 20010904//EN"
 "http://www.w3.org/TR/2001/REC-SVG-20010904/DTD/svg10.dtd">
<svg version="1.0" xmlns="http://www.w3.org/2000/svg"
 width="500.000000pt" height="500.000000pt" viewBox="0 0 500.000000 500.000000"
 preserveAspectRatio="xMidYMid meet">
<metadata>
Created by potrace 1.11, written by Peter Selinger 2001-2013
</metadata>
<g transform="translate(0.000000,500.000000) scale(0.100000,-0.100000)"
fill="#000000" stroke="none">
<path d="M4537 4352 c-144 -437 -454 -833 -861 -1097 -262 -171 -592 -286
-961 -334 -267 -36 -440 -46 -770 -46 -235 0 -393 6 -500 19 -16 2 -57 7 -90
10 -33 4 -82 11 -110 16 -27 5 -68 12 -90 15 -227 31 -601 149 -829 261 -103
51 -91 34 16 -24 166 -90 362 -167 573 -226 97 -26 312 -72 385 -81 25 -3 56
-8 70 -10 22 -3 81 -11 160 -20 22 -3 98 -8 307 -20 29 -2 57 -6 63 -10 5 -3
10 -3 10 2 0 4 66 8 148 8 118 0 149 -3 160 -15 11 -13 11 -13 7 1 -5 14 6 16
77 17 46 0 110 2 143 5 38 3 65 1 74 -6 12 -9 13 -9 7 1 -4 7 -2 12 6 13 7 1
38 2 68 4 30 2 66 6 79 9 19 4 22 3 13 -6 -9 -9 -8 -16 5 -30 9 -10 11 -18 6
-18 -17 0 -35 28 -27 41 4 7 3 9 -3 6 -5 -3 -9 -42 -8 -85 1 -44 -3 -86 -9
-94 -7 -9 -29 -15 -57 -15 -39 -1 -48 3 -64 28 -11 15 -21 26 -23 24 -2 -2 5
-16 15 -31 17 -26 17 -28 0 -21 -9 3 -17 3 -17 -1 0 -4 -25 -8 -55 -8 -36 -1
-52 3 -48 10 3 6 0 5 -8 -1 -15 -14 -43 -18 -35 -5 3 5 -1 9 -9 9 -8 0 -12 -4
-9 -9 8 -13 -20 -9 -35 5 -11 10 -13 10 -7 0 4 -8 1 -13 -8 -13 -16 0 -17 24
-4 46 4 6 1 11 -6 11 -7 0 -13 -7 -13 -16 0 -9 -1 -21 -2 -27 -1 -14 -34 -14
-43 0 -5 8 -8 7 -8 -1 0 -7 -11 -13 -24 -13 -13 0 -27 6 -30 13 -5 9 -7 9 -12
-1 -5 -10 -9 -10 -22 0 -11 9 -14 9 -9 1 5 -8 1 -11 -15 -8 -13 3 -50 6 -83 7
-33 1 -66 6 -74 12 -12 9 -13 8 -7 -3 6 -10 4 -12 -10 -8 -11 3 -57 8 -104 12
-47 3 -103 8 -125 10 -22 2 -67 7 -99 10 -33 3 -74 8 -90 10 -17 2 -58 7 -91
10 -33 3 -73 8 -90 10 -273 38 -626 84 -765 101 -25 3 -56 7 -70 9 -14 2 -63
9 -110 15 -47 6 -98 13 -115 16 -20 4 -27 3 -20 -4 27 -27 610 -187 865 -237
94 -18 243 -46 275 -50 22 -4 47 -8 55 -10 8 -2 38 -7 65 -11 28 -3 73 -10
100 -15 28 -5 57 -10 65 -10 52 -2 187 -23 197 -31 6 -5 14 -5 17 0 3 5 26 6
51 2 25 -4 45 -5 45 -2 0 2 8 -2 17 -9 9 -8 14 -9 11 -4 -9 15 135 6 144 -9 6
-8 8 -7 8 2 0 8 8 10 24 6 13 -3 61 -6 107 -7 60 -1 87 -5 95 -16 9 -11 12
-12 19 -1 5 9 4 11 -3 6 -7 -4 -12 -2 -12 3 0 6 11 10 25 9 16 -2 24 -7 21
-15 -3 -7 -1 -13 4 -13 6 0 10 6 10 13 0 7 11 14 25 15 14 1 25 -4 25 -11 0
-7 3 -8 8 -2 8 11 13 13 75 18 42 4 46 3 37 -13 -5 -9 -7 -20 -3 -23 3 -4 0
-13 -7 -21 -11 -14 -15 -13 -36 2 -13 9 -24 20 -24 25 0 12 24 3 37 -13 13
-16 18 -2 5 15 -11 16 -52 16 -52 1 0 -8 11 -21 24 -30 17 -11 23 -22 19 -36
-3 -11 0 -20 6 -20 5 0 8 8 4 18 -3 10 5 5 21 -12 14 -16 26 -25 26 -20 0 6
-5 15 -12 22 -6 6 -9 15 -5 19 13 12 35 -31 32 -64 -1 -22 -10 -39 -23 -49
-12 -8 -22 -11 -22 -5 0 5 8 15 18 20 9 6 11 11 5 11 -7 0 -13 5 -13 11 0 5 5
7 10 4 6 -3 10 -1 10 5 0 7 -6 10 -12 7 -7 -2 -13 -12 -13 -22 0 -10 -5 -20
-12 -22 -16 -6 -6 49 10 59 9 6 8 8 -1 8 -8 0 -16 -9 -19 -20 -3 -11 -9 -17
-14 -14 -5 3 -9 0 -9 -5 0 -6 4 -11 8 -11 4 0 8 -15 9 -32 3 -54 6 -68 15 -68
11 0 10 7 -3 31 -6 11 -8 25 -6 32 2 7 11 -3 21 -21 9 -17 13 -32 9 -32 -4 0
-2 -5 5 -12 17 -17 15 -33 -3 -18 -9 7 -18 10 -22 6 -3 -3 -1 -6 5 -6 7 0 12
-5 12 -10 0 -6 -6 -10 -12 -9 -25 3 -38 -1 -38 -12 0 -6 6 -7 12 -2 7 4 34 8
61 8 36 1 46 -2 42 -13 -3 -7 -5 -16 -5 -18 0 -2 -5 -4 -11 -4 -5 0 -7 5 -4
10 3 6 2 10 -2 10 -5 0 -14 -9 -20 -19 -10 -15 -9 -20 2 -25 9 -3 12 0 8 10
-4 10 0 12 11 8 9 -3 13 -10 10 -15 -3 -5 3 -6 12 -2 11 4 15 3 10 -5 -3 -6
-1 -14 5 -18 7 -4 9 -3 5 4 -3 6 -2 13 3 16 5 3 11 -3 14 -14 5 -20 -12 -28
-27 -13 -6 7 -24 11 -58 15 -9 1 -15 5 -13 8 2 4 -10 8 -28 8 -31 2 -69 8 -74
12 -5 4 -22 7 -42 9 -10 0 -21 9 -23 19 -5 18 -44 27 -53 13 -2 -5 7 -7 20 -5
14 1 25 -2 25 -7 0 -13 -84 -1 -88 12 -2 5 -8 6 -14 3 -6 -4 -8 1 -4 14 8 23
-8 39 -20 21 -5 -8 -3 -9 6 -4 10 6 12 4 7 -9 -4 -10 -7 -19 -7 -20 0 -4 -52
4 -70 11 -8 4 -21 5 -27 4 -7 -1 -13 2 -13 7 0 5 -13 7 -30 4 -17 -2 -30 0
-30 4 0 5 -12 10 -27 10 -50 3 -113 16 -113 24 0 5 -10 6 -22 2 -14 -3 -19 -1
-14 6 5 8 2 10 -8 6 -9 -3 -48 1 -88 9 -40 9 -86 18 -103 21 -16 3 -52 11 -80
17 -27 5 -61 12 -75 15 -14 3 -59 12 -100 20 -41 9 -86 18 -100 20 -14 3 -124
25 -245 49 -390 79 -710 139 -955 180 -89 14 -198 17 -220 5 l-24 -13 31 -27
c34 -31 115 -63 288 -115 106 -32 520 -138 582 -150 13 -2 31 -6 41 -9 9 -3
28 -7 42 -10 14 -3 151 -32 305 -66 154 -33 289 -62 300 -64 963 -187 1231
-251 1576 -381 381 -144 680 -332 929 -584 148 -150 242 -273 321 -426 68
-130 104 -181 142 -196 68 -28 94 -8 137 105 56 144 170 534 194 661 32 164
56 300 62 340 4 28 8 58 10 67 1 9 6 48 9 85 4 37 9 70 10 73 18 32 28 806 13
995 -36 430 -130 876 -268 1273 -52 149 -133 352 -140 352 -3 -1 -22 -53 -43
-118z m-289 -917 c-3 -3 -9 2 -12 12 -6 14 -5 15 5 6 7 -7 10 -15 7 -18z
m-238 -189 c0 -2 -7 -7 -16 -10 -8 -3 -12 -2 -9 4 6 10 25 14 25 6z m-60 -26
c0 -5 -5 -10 -11 -10 -5 0 -7 5 -4 10 3 6 8 10 11 10 2 0 4 -4 4 -10z m-129
-73 c-10 -9 -11 -8 -5 6 3 10 9 15 12 12 3 -3 0 -11 -7 -18z m-56 -25 c-3 -3
0 -10 5 -17 7 -8 5 -12 -5 -12 -8 0 -13 3 -10 5 3 3 0 10 -5 17 -7 8 -5 12 5
12 8 0 13 -3 10 -5z m40 -1 c3 -5 2 -12 -3 -15 -5 -3 -9 1 -9 9 0 17 3 19 12
6z m-110 -61 c-4 -6 -1 -19 6 -28 12 -16 12 -16 -5 0 -16 14 -15 38 0 38 3 0
2 -5 -1 -10z m45 5 c0 -2 -6 -8 -13 -14 -10 -8 -14 -7 -14 2 0 8 6 14 14 14 7
0 13 -1 13 -2z m-95 -25 c3 -5 1 -10 -4 -10 -6 0 -11 5 -11 10 0 6 2 10 4 10
3 0 8 -4 11 -10z m-104 -23 c-10 -9 -11 -8 -5 6 3 10 9 15 12 12 3 -3 0 -11
-7 -18z m19 -12 c-7 -8 -17 -15 -23 -15 -6 0 -2 7 9 15 25 19 30 19 14 0z
m186 -11 c1 -9 0 -13 -4 -10 -3 4 -7 14 -8 22 -1 9 0 13 4 10 3 -4 7 -14 8
-22z m-146 12 c0 -3 -4 -8 -10 -11 -5 -3 -10 -1 -10 4 0 6 5 11 10 11 6 0 10
-2 10 -4z m85 -4 c-3 -3 0 -10 5 -17 7 -8 5 -12 -5 -12 -8 0 -13 3 -10 5 3 3
0 10 -5 17 -7 8 -5 12 5 12 8 0 13 -3 10 -5z m130 -1 c-9 -8 -36 -10 -30 -2 2
4 11 8 20 8 8 0 13 -3 10 -6z m-330 -20 c-3 -6 -11 -9 -16 -6 -5 4 -9 -3 -9
-14 0 -12 5 -20 12 -18 6 1 13 -11 14 -28 2 -20 0 -25 -5 -16 -5 8 -7 20 -4
28 3 8 0 13 -8 11 -9 -2 -14 6 -14 22 0 15 5 24 13 23 6 -2 12 2 12 9 0 6 3 9
6 5 3 -3 3 -11 -1 -16z m169 3 c3 -8 2 -12 -4 -9 -6 3 -10 10 -10 16 0 14 7
11 14 -7z m-227 -36 c-3 -7 -5 -2 -5 12 0 14 2 19 5 13 2 -7 2 -19 0 -25z
m174 18 c5 3 9 0 9 -6 0 -15 -23 -7 -26 8 -1 7 0 8 3 2 2 -5 9 -8 14 -4z m124
5 c3 -5 2 -12 -3 -15 -5 -3 -9 1 -9 9 0 17 3 19 12 6z m-323 -19 c11 -15 11
-15 -3 -4 -9 7 -24 10 -33 6 -9 -3 -16 -2 -16 3 0 16 38 12 52 -5z m108 8 c0
-5 -4 -10 -10 -10 -5 0 -10 5 -10 10 0 6 5 10 10 10 6 0 10 -4 10 -10z m50 0
c-8 -5 -19 -10 -25 -10 -5 0 -3 5 5 10 8 5 20 10 25 10 6 0 3 -5 -5 -10z
m-220 -22 c0 -5 -8 -4 -19 1 -10 6 -22 7 -26 3 -5 -4 -5 -2 -2 5 8 13 47 6 47
-9z m45 2 c3 -5 1 -10 -4 -10 -6 0 -11 5 -11 10 0 6 2 10 4 10 3 0 8 -4 11
-10z m263 -9 c-7 -9 -13 -17 -14 -19 -1 -1 -7 4 -14 13 -11 13 -10 14 5 9 11
-5 16 -4 12 3 -3 5 0 10 8 10 12 0 12 -3 3 -16z m-345 -3 c9 0 15 -3 12 -8 -3
-4 -2 -10 2 -13 5 -2 1 -2 -7 1 -8 3 -23 4 -33 4 -9 0 -15 3 -12 9 4 5 1 9 -4
9 -6 0 -11 -2 -11 -4 0 -2 -3 -11 -6 -19 -4 -11 2 -14 23 -11 18 2 34 -4 47
-19 18 -19 18 -20 2 -14 -10 4 -20 7 -22 7 -3 0 -3 4 0 9 3 5 -6 9 -21 9 l-27
0 22 -18 c12 -10 28 -21 35 -23 9 -4 8 -8 -3 -16 -8 -5 -18 -7 -24 -4 -6 4 -6
-1 -2 -13 5 -14 4 -16 -5 -7 -13 13 -3 37 12 28 5 -4 9 -1 9 4 0 13 -23 15
-34 4 -4 -5 -13 -8 -18 -8 -6 0 -13 -6 -16 -13 -2 -7 2 -10 12 -6 10 4 16 1
16 -9 0 -24 28 -29 40 -7 6 11 18 20 28 19 14 0 14 -2 -2 -8 -13 -5 -16 -10
-8 -15 6 -4 19 2 29 14 19 22 33 26 33 8 0 -6 -3 -9 -6 -5 -3 3 -14 -3 -25
-14 -11 -11 -24 -17 -30 -13 -6 3 -20 -2 -31 -13 -12 -10 -19 -13 -15 -7 4 7
-5 11 -23 11 -25 0 -28 -3 -17 -16 9 -12 9 -13 0 -7 -8 4 -13 2 -13 -4 0 -7
-7 -10 -15 -6 -8 3 -15 0 -15 -6 0 -6 -3 -8 -7 -5 -3 4 -11 3 -18 -1 -6 -4 -3
0 7 10 21 19 23 28 5 28 -8 0 -20 -11 -27 -25 -10 -18 -19 -24 -33 -19 -11 3
-17 2 -14 -3 4 -5 0 -10 -8 -10 -11 0 -12 4 -4 14 8 9 8 13 1 13 -6 0 -16 -9
-22 -20 -6 -11 -14 -19 -18 -19 -4 1 -9 0 -12 -1 -8 -3 -41 -8 -85 -14 -28 -4
-35 -2 -25 4 13 9 13 10 0 10 -9 0 -11 3 -5 8 14 10 17 32 5 32 -5 0 -10 -7
-10 -16 0 -8 -5 -12 -10 -9 -6 4 -8 11 -5 16 3 5 -2 6 -12 3 -11 -3 -14 -2 -8
3 12 9 13 23 2 41 -5 7 -4 12 2 12 6 0 11 -5 11 -11 0 -5 5 -7 11 -3 8 5 8 9
-1 14 -9 5 -9 9 -1 14 6 4 11 2 11 -4 0 -6 5 -8 12 -4 9 6 9 9 -1 12 -8 3 -7
8 6 17 15 11 16 16 5 27 -11 11 -12 10 -7 -4 8 -19 -9 -25 -20 -8 -4 6 -11 7
-17 4 -7 -5 -8 -2 -3 6 5 9 4 11 -4 6 -9 -6 -9 -11 0 -22 9 -10 9 -14 0 -14
-6 0 -14 7 -18 16 -5 13 -7 13 -14 2 -7 -11 -11 -10 -19 2 -8 12 -10 12 -10 1
0 -11 -3 -11 -15 -1 -12 10 -15 10 -16 -1 0 -11 -2 -11 -6 -1 -4 10 -8 10 -19
1 -8 -7 -14 -7 -14 -1 0 14 19 19 60 17 19 -1 41 2 48 8 6 5 12 6 12 3 0 -4 9
-2 20 4 16 8 18 8 14 -4 -3 -8 0 -17 7 -22 7 -4 10 -3 6 3 -4 6 0 16 8 23 8 7
15 9 15 6 0 -4 9 -2 19 4 14 7 22 7 26 0 5 -8 11 -7 21 1 8 6 14 8 14 5 0 -4
9 -2 20 4 17 9 19 8 13 -7 -5 -14 0 -12 21 7 l28 25 18 -22 c14 -18 19 -20 24
-8 3 8 1 15 -4 15 -6 0 -10 5 -10 12 0 9 3 9 12 0 15 -15 31 -16 22 0 -4 6 -3
8 4 4 6 -3 13 -2 17 4 3 5 12 10 18 10 9 0 9 -2 0 -8 -9 -5 -6 -11 9 -21 18
-11 20 -11 15 4 -4 9 -3 14 2 11 5 -3 12 1 15 10 4 11 12 14 24 9 9 -4 25 -7
35 -7z m56 0 c-3 -24 1 -37 17 -53 9 -9 14 -18 11 -22 -9 -9 -46 58 -40 73 6
17 14 18 12 2z m61 -8 c0 -5 -2 -10 -4 -10 -3 0 -8 5 -11 10 -3 6 -1 10 4 10
6 0 11 -4 11 -10z m23 -5 c-3 -10 0 -15 8 -13 15 3 22 -39 8 -48 -5 -3 -17 0
-26 6 -16 10 -16 10 2 5 16 -4 21 0 22 15 1 11 -3 19 -10 17 -6 -1 -13 6 -15
16 -2 9 1 17 7 17 6 0 8 -7 4 -15z m134 -7 c-3 -8 -6 -5 -6 6 -1 11 2 17 5 13
3 -3 4 -12 1 -19z m-44 5 c-7 -2 -19 -2 -25 0 -7 3 -2 5 12 5 14 0 19 -2 13
-5z m-115 -34 c-6 -4 -18 -4 -27 -1 -10 4 -11 7 -3 10 7 2 9 8 6 14 -3 5 3 4
15 -3 13 -9 16 -16 9 -20z m186 15 c3 -8 2 -12 -4 -9 -6 3 -10 10 -10 16 0 14
7 11 14 -7z m-250 -29 c9 -14 15 -25 13 -25 -2 0 -13 11 -25 25 -12 14 -18 25
-13 25 5 0 16 -11 25 -25z m171 14 c11 -16 1 -19 -13 -3 -7 8 -8 14 -3 14 5 0
13 -5 16 -11z m-104 -33 c5 3 9 0 9 -6 0 -15 -23 -7 -26 8 -1 7 0 8 3 2 2 -5
9 -8 14 -4z m-678 -9 c3 -8 20 -12 46 -11 24 1 41 -3 41 -9 0 -7 4 -7 12 1 8
8 15 8 24 1 16 -13 37 -2 28 13 -5 7 -2 8 6 3 10 -6 7 -14 -14 -30 -18 -14
-24 -25 -17 -29 8 -5 8 -13 1 -26 -8 -14 -5 -21 15 -34 34 -22 23 -44 -21 -41
-19 1 -34 -2 -34 -6 0 -13 -73 -5 -78 9 -2 6 1 12 8 12 6 0 9 -3 6 -8 -2 -4 9
-8 25 -8 17 -1 26 2 22 9 -3 6 -1 7 5 3 13 -8 35 28 24 39 -4 5 -2 5 5 2 7 -5
10 0 9 10 -2 10 2 22 8 26 7 5 3 7 -8 5 -10 -2 -21 3 -24 11 -3 8 0 11 6 7 6
-3 14 -1 18 5 5 8 3 9 -6 4 -8 -5 -11 -4 -6 3 3 6 -1 9 -11 8 -9 -2 -19 -8
-21 -14 -2 -7 -8 -12 -13 -12 -6 0 -7 5 -3 12 4 7 3 8 -4 4 -7 -4 -12 -2 -12
4 0 6 -5 8 -12 4 -7 -5 -9 -2 -4 7 4 8 1 7 -6 -2 -13 -16 -16 -78 -4 -98 4 -5
1 -13 -5 -16 -5 -4 -8 -13 -5 -21 3 -7 1 -16 -4 -19 -12 -8 -19 17 -9 37 6 11
5 21 -5 30 -11 11 -11 15 3 25 12 9 13 14 4 23 -13 14 -36 4 -30 -13 2 -7 -3
-18 -12 -25 -14 -10 -13 -11 4 -5 19 6 19 6 2 -14 -9 -11 -15 -23 -12 -26 3
-4 2 -4 -2 -1 -5 3 -8 30 -8 59 0 39 3 51 11 44 14 -12 41 -2 48 18 7 18 -2
35 -15 28 -5 -4 -9 -1 -9 4 0 16 27 14 33 -2z m597 3 c0 -5 -4 -10 -10 -10 -5
0 -10 5 -10 10 0 6 5 10 10 10 6 0 10 -4 10 -10z m135 0 c-3 -5 -12 -10 -18
-10 -7 0 -6 4 3 10 19 12 23 12 15 0z m-67 -29 c-7 -2 -20 -9 -28 -15 -13 -9
-13 -9 -2 6 8 9 11 22 7 28 -4 7 2 6 14 -2 14 -8 17 -14 9 -17z m-678 7 c0
-15 -18 -17 -30 -3 -9 11 -8 14 9 12 12 -1 21 -5 21 -9z m1253 -23 c4 -8 3
-16 -1 -19 -4 -3 -9 4 -9 15 -2 23 3 25 10 4z m-1198 -16 c4 -6 13 -8 20 -5
16 6 48 -27 38 -38 -8 -7 -9 -12 -12 -38 0 -6 -4 -8 -7 -5 -4 3 -15 2 -25 -3
-14 -8 -21 -6 -30 11 -8 15 -8 19 0 15 6 -4 11 -2 11 3 0 6 -8 11 -17 11 -15
0 -14 2 3 15 19 15 19 15 0 30 -17 13 -17 15 -4 15 9 0 20 -5 23 -11z m1143
-24 c-3 -3 -9 2 -12 12 -6 14 -5 15 5 6 7 -7 10 -15 7 -18z m-1198 5 c0 -5 -4
-10 -10 -10 -5 0 -10 5 -10 10 0 6 5 10 10 10 6 0 10 -4 10 -10z m1157 -5 c0
-8 -4 -12 -9 -9 -5 3 -6 10 -3 15 9 13 12 11 12 -6z m99 -31 c1 -9 0 -13 -4
-10 -3 4 -7 14 -8 22 -1 9 0 13 4 10 3 -4 7 -14 8 -22z m-162 -2 c3 -5 -1 -9
-9 -9 -8 0 -12 4 -9 9 3 4 7 8 9 8 2 0 6 -4 9 -8z m-1101 -21 c-5 -3 -9 -15
-9 -26 0 -14 -6 -19 -19 -18 -11 1 -23 -4 -27 -10 -6 -9 -8 -9 -8 0 0 7 12 19
28 27 15 8 21 15 13 16 -11 0 -11 3 -1 15 7 8 17 12 22 9 6 -4 6 -9 1 -13z
m1098 -34 c-10 -9 -11 -8 -5 6 3 10 9 15 12 12 3 -3 0 -11 -7 -18z m-54 -14
c0 -9 -4 -10 -14 -2 -7 6 -13 12 -13 14 0 1 6 2 13 2 8 0 14 -6 14 -14z m143
13 c0 -3 -4 -8 -10 -11 -5 -3 -10 -1 -10 4 0 6 5 11 10 11 6 0 10 -2 10 -4z
m40 -6 c0 -5 -5 -10 -11 -10 -5 0 -7 5 -4 10 3 6 8 10 11 10 2 0 4 -4 4 -10z
m-250 -15 c-7 -8 -17 -15 -23 -15 -6 0 -2 7 9 15 25 19 30 19 14 0z m470 11
c0 -2 -8 -10 -17 -17 -16 -13 -17 -12 -4 4 13 16 21 21 21 13z m-565 -16 c3
-5 1 -10 -4 -10 -6 0 -11 5 -11 10 0 6 2 10 4 10 3 0 8 -4 11 -10z m122 -8 c0
-10 -6 -19 -13 -19 -9 0 -9 5 -1 19 7 10 13 18 14 18 1 0 1 -8 0 -18z m78 9
c3 -5 2 -12 -3 -15 -5 -3 -9 1 -9 9 0 17 3 19 12 6z m-275 -21 c0 -5 -5 -10
-11 -10 -5 0 -7 5 -4 10 3 6 8 10 11 10 2 0 4 -4 4 -10z m43 -10 c9 -11 13
-20 7 -20 -5 0 -14 9 -20 20 -6 11 -9 20 -8 20 2 0 11 -9 21 -20z m201 12 c2
-4 -4 -8 -14 -8 -10 0 -16 4 -14 8 3 4 9 8 14 8 5 0 11 -4 14 -8z m136 4 c0
-3 -4 -8 -10 -11 -5 -3 -10 -1 -10 4 0 6 5 11 10 11 6 0 10 -2 10 -4z m-236
-17 c9 8 13 7 13 -3 0 -17 -30 -14 -33 3 -2 7 0 7 3 1 3 -7 9 -8 17 -1z m-169
-19 c0 -15 -41 -24 -50 -11 -3 5 0 13 6 17 7 4 9 3 5 -4 -4 -7 1 -10 14 -9 21
1 27 12 10 20 -6 3 -5 4 2 3 7 -2 13 -9 13 -16z m141 -16 c1 -9 -1 -13 -4 -9
-4 4 -7 10 -7 13 0 4 -4 14 -9 22 -7 12 -6 13 4 3 8 -7 15 -20 16 -29z m199
18 c-3 -3 -11 0 -18 7 -9 10 -8 11 6 5 10 -3 15 -9 12 -12z m175 8 c-8 -5 -19
-10 -25 -10 -5 0 -3 5 5 10 8 5 20 10 25 10 6 0 3 -5 -5 -10z m-588 -7 c-6 -2
-9 -10 -6 -15 4 -7 2 -8 -5 -4 -13 9 -5 26 12 25 9 0 8 -2 -1 -6z m108 -24
c-7 -11 -14 -18 -17 -15 -3 3 -12 -2 -20 -12 -13 -15 -13 -15 -3 6 6 12 15 20
19 17 5 -3 11 2 15 10 3 8 8 15 11 15 3 0 1 -9 -5 -21z m-153 -11 c-3 -8 -6
-5 -6 6 -1 11 2 17 5 13 3 -3 4 -12 1 -19z m193 18 c0 -2 -7 -7 -16 -10 -8 -3
-12 -2 -9 4 6 10 25 14 25 6z m-145 -16 c6 5 16 5 25 -2 13 -8 12 -9 -2 -5 -9
3 -22 -1 -28 -9 -7 -8 -19 -14 -26 -14 -8 0 -13 -3 -13 -7 3 -20 -2 -33 -12
-33 -8 0 -8 5 1 15 18 22 -3 18 -33 -5 -16 -13 -32 -18 -44 -13 -16 6 -16 5
-4 -10 9 -11 10 -17 2 -17 -6 0 -11 5 -11 10 0 6 -5 10 -10 10 -7 0 -7 -7 0
-21 7 -11 9 -27 6 -34 -2 -7 6 -28 20 -46 27 -37 28 -39 14 -39 -5 0 -10 7
-10 15 0 18 -12 19 -27 4 -8 -8 -13 -8 -17 0 -4 6 -17 11 -28 11 -12 0 -18 -3
-14 -7 4 -5 13 -8 19 -8 7 0 12 -9 12 -19 0 -10 11 -26 25 -35 22 -15 24 -15
18 1 -5 12 -3 15 8 11 13 -5 13 -8 -2 -24 -9 -11 -12 -19 -6 -19 6 0 14 5 17
10 3 6 11 10 18 10 6 0 2 -6 -9 -14 -10 -8 -16 -18 -12 -21 8 -8 28 10 46 40
6 11 12 15 12 8 0 -7 -11 -24 -24 -40 -24 -27 -24 -28 -45 -9 -11 10 -18 22
-16 26 5 8 -25 24 -31 17 -2 -2 10 -20 27 -40 17 -20 27 -37 22 -37 -4 0 -14
9 -21 20 -16 26 -28 26 -28 0 0 -12 5 -19 12 -16 7 3 10 -3 7 -15 -3 -11 0
-19 6 -19 7 0 10 4 7 8 -2 4 4 8 14 9 18 2 18 1 2 -16 -9 -10 -20 -16 -24 -14
-13 7 -37 -40 -29 -56 5 -9 7 -33 6 -54 -2 -25 1 -37 9 -34 6 2 10 12 8 22 -3
14 -1 15 11 4 8 -8 13 -17 10 -21 -2 -5 0 -8 6 -8 18 0 23 20 6 26 -13 5 -13
9 -3 22 11 13 10 14 -10 8 -14 -5 -22 -3 -22 4 0 6 4 9 9 6 4 -3 16 3 26 14
19 22 7 28 -13 8 -10 -10 -15 -10 -22 2 -5 8 -8 19 -7 24 5 14 27 19 27 6 0
-6 -4 -8 -10 -5 -5 3 -10 2 -10 -4 0 -19 19 -21 29 -4 6 10 11 14 11 8 0 -5 5
-3 11 5 9 13 10 13 6 -1 -6 -20 20 -62 34 -54 5 4 9 1 9 -4 0 -16 -16 -13 -35
5 -20 21 -32 10 -14 -13 9 -11 10 -14 2 -9 -7 4 -13 3 -13 -2 0 -16 13 -22 27
-11 7 6 13 8 13 4 0 -4 -10 -15 -22 -25 -13 -10 -20 -21 -16 -25 9 -10 58 36
51 48 -3 6 -1 7 5 3 6 -3 13 2 15 11 4 14 5 14 6 2 0 -8 -15 -30 -34 -49 -33
-32 -35 -33 -54 -16 -11 10 -25 15 -31 11 -14 -9 -40 13 -34 28 2 7 -6 13 -21
13 -14 1 -25 -2 -25 -7 0 -5 4 -9 10 -9 5 0 20 -11 34 -25 14 -14 31 -22 39
-19 8 3 20 -2 27 -11 8 -10 9 -15 1 -15 -6 0 -11 5 -11 10 0 6 -5 10 -10 10
-7 0 -7 -6 0 -20 7 -12 16 -17 27 -13 11 4 14 3 9 -5 -4 -7 -3 -12 3 -12 5 0
12 6 15 13 3 6 3 2 1 -10 -4 -15 1 -26 16 -37 13 -9 20 -18 17 -21 -3 -3 -21
10 -41 30 -23 23 -41 33 -51 29 -12 -5 -16 -1 -14 16 2 13 -2 25 -8 27 -7 2
-10 -6 -9 -22 2 -14 -1 -27 -6 -31 -5 -3 -9 -10 -9 -16 0 -7 4 -7 13 1 21 17
56 5 87 -31 28 -31 30 -32 47 -16 13 14 15 21 5 30 -7 7 -12 17 -12 22 0 6 5
3 11 -6 5 -10 16 -18 24 -18 20 0 25 -13 13 -30 -8 -12 -9 -12 -4 3 8 25 -10
21 -33 -9 l-20 -25 -29 32 c-23 26 -33 31 -43 23 -16 -13 -50 -15 -43 -2 3 5
13 7 21 6 9 -2 18 2 20 7 5 16 -34 15 -48 -1 -6 -8 -17 -14 -23 -14 -6 0 -4 5
4 10 8 5 13 10 10 11 -3 0 -13 2 -22 4 -10 2 -18 -2 -18 -8 0 -8 -3 -8 -8 -2
-13 19 -52 36 -52 24 0 -8 -4 -9 -13 0 -8 6 -18 7 -22 3 -5 -4 -5 -2 -1 5 3 6
2 14 -4 18 -5 3 -10 0 -10 -7 0 -9 -3 -9 -10 2 -5 8 -10 11 -10 6 0 -5 -6 -3
-13 3 -8 6 -17 8 -20 5 -3 -4 -14 -3 -24 1 -10 5 -27 10 -38 12 -10 2 -22 7
-25 11 -3 4 -12 7 -20 7 -8 -1 -21 3 -27 8 -7 5 -13 6 -13 2 0 -4 -6 -3 -12 2
-7 6 -21 9 -31 8 -10 -2 -21 3 -24 11 -3 8 -9 14 -15 14 -5 0 -7 -4 -4 -9 4
-5 -3 -7 -14 -4 -12 3 -27 18 -35 34 -20 37 -19 42 5 27 21 -14 28 -34 8 -22
-7 4 -6 -1 3 -11 13 -13 21 -15 37 -6 28 15 31 14 27 -7 -2 -11 3 -19 11 -19
8 0 14 4 14 9 0 4 -5 8 -11 8 -5 0 -7 5 -3 11 4 7 9 7 13 1 3 -5 14 -8 23 -7
11 2 15 -2 11 -13 -4 -13 -3 -14 5 -4 7 11 11 10 16 -4 3 -9 9 -14 13 -10 3 3
15 -1 25 -11 10 -9 18 -12 18 -7 0 5 5 2 11 -6 9 -13 10 -12 5 3 -4 12 -2 16
6 11 7 -5 8 -3 3 6 -6 9 -4 11 6 5 8 -5 11 -4 6 1 -5 5 -14 9 -20 9 -7 0 -12
14 -11 32 0 28 -2 31 -15 20 -12 -10 -13 -9 -7 3 4 8 1 7 -7 -3 -10 -12 -17
-14 -22 -8 -3 6 -1 11 5 11 6 0 8 5 4 12 -6 9 -9 9 -12 0 -2 -7 -15 4 -28 24
-24 35 -24 54 -1 54 7 0 6 -4 -3 -10 -13 -8 -13 -11 -1 -22 11 -11 13 -11 6 1
-6 10 -4 12 5 6 9 -6 11 -4 5 5 -5 8 7 3 26 -10 26 -19 31 -20 19 -5 -8 10
-10 16 -4 12 6 -3 11 1 11 9 0 10 -4 11 -11 4 -5 -5 -14 -10 -19 -10 -5 0 -1
8 10 18 10 9 12 13 3 7 -11 -7 -11 -5 3 11 9 11 14 24 10 29 -5 4 -2 5 5 1 7
-4 24 2 38 13 15 12 23 21 19 21 -5 0 -17 -7 -27 -17 -20 -18 -36 -11 -22 10
5 7 -3 0 -17 -17 -17 -19 -28 -25 -33 -18 -4 7 -1 12 8 12 9 0 16 5 16 10 0
12 -22 9 -33 -5 -5 -6 -6 -2 -3 8 4 12 2 16 -7 11 -9 -5 -9 -4 1 7 6 7 12 17
12 23 0 5 -7 1 -16 -10 -8 -10 -12 -13 -8 -5 5 10 3 12 -6 6 -9 -6 -11 -4 -5
6 7 11 5 11 -10 -1 -18 -15 -18 -14 -1 13 20 30 29 35 20 12 -4 -8 -1 -15 6
-15 6 0 9 4 6 8 -2 4 -1 14 5 22 5 8 9 10 9 4 0 -18 26 -12 39 9 10 15 10 18
-1 11 -7 -4 -10 -4 -6 1 4 4 2 15 -5 24 -10 14 -10 14 3 6 9 -5 7 -2 -3 8 -11
9 -15 17 -10 17 5 0 15 -6 23 -12 11 -10 11 -9 0 6 -12 16 -13 18 -1 11 10 -5
12 -4 7 3 -4 8 -2 10 7 6 8 -3 17 2 20 10 4 9 3 15 -1 15 -19 -3 -23 2 -13 15
9 11 8 15 -4 20 -10 3 -13 2 -10 -5 4 -5 1 -17 -6 -25 -11 -14 -15 -13 -31 8
l-18 23 3 -25 c1 -16 -3 -24 -10 -22 -7 1 -13 -3 -13 -9 0 -6 7 -8 18 -4 14 5
15 4 5 -6 -19 -19 -38 3 -24 28 8 17 7 19 -12 18 -12 -1 -25 2 -28 8 -4 5 -10
0 -14 -12 -3 -11 -11 -21 -16 -21 -13 0 -11 18 4 23 7 2 8 8 3 13 -5 5 -11 3
-14 -5 -4 -11 -6 -11 -14 0 -6 10 -7 6 -2 -11 7 -25 6 -25 -14 -6 -30 26 -21
32 40 31 29 -1 59 3 66 8 8 6 17 5 26 -2 11 -9 15 -9 18 1 3 8 7 6 11 -6 5
-11 3 -15 -5 -10 -7 4 -8 3 -4 -5 11 -17 26 -3 19 16 -5 12 -2 15 9 10 9 -3
19 -3 23 1 3 3 16 7 28 8 12 1 31 5 41 10 16 6 18 4 13 -12 -7 -19 -7 -19 8 0
15 20 50 33 39 15 -3 -5 -10 -7 -15 -4 -5 4 -9 2 -9 -4 0 -21 19 -20 34 1 9
12 16 19 16 14 0 -5 8 -2 17 5 11 10 14 10 9 2 -4 -8 -2 -13 8 -13 8 0 16 5
18 11 2 7 17 12 33 13 17 1 40 7 52 14 19 11 24 9 33 -7 8 -17 6 -22 -11 -31
-17 -9 -25 -8 -41 7 -14 12 -20 14 -16 4 2 -8 13 -20 24 -28 18 -12 24 -11 48
8 20 15 24 25 17 32 -6 6 -11 15 -11 21 0 5 6 2 13 -8 12 -16 14 -16 26 -2 16
19 31 21 31 4 0 -6 -3 -9 -6 -5 -3 3 -18 -5 -32 -18 -14 -13 -23 -27 -19 -31
3 -3 13 1 22 9 8 9 31 21 50 28 29 11 32 15 23 28 -10 13 -10 14 2 4 8 -8 18
-9 25 -3z m328 -15 c-3 -9 -8 -14 -10 -11 -3 3 -2 9 2 15 9 16 15 13 8 -4z
m-217 -4 c-4 -5 -2 -11 3 -13 5 -1 3 -9 -5 -16 -12 -11 -13 -9 -10 10 6 30 5
28 12 28 3 0 3 -4 0 -9z m440 -3 c3 -4 -1 -5 -10 -4 -8 1 -18 5 -22 8 -3 4 1
5 10 4 8 -1 18 -5 22 -8z m-546 -18 c-24 -15 -36 -11 -14 4 10 8 21 12 24 10
2 -3 -2 -9 -10 -14z m29 -7 c-12 -15 -12 -16 4 -10 9 3 17 2 17 -3 0 -11 -23
-14 -33 -4 -3 3 -1 14 6 25 6 10 13 16 16 14 2 -3 -2 -12 -10 -22z m148 21
c-3 -3 -12 -4 -19 -1 -8 3 -5 6 6 6 11 1 17 -2 13 -5z m-104 -19 c-3 -9 -8
-14 -10 -11 -3 3 -2 9 2 15 9 16 15 13 8 -4z m161 7 c3 -5 -1 -9 -9 -9 -8 0
-15 4 -15 9 0 4 4 8 9 8 6 0 12 -4 15 -8z m207 -9 c13 -16 12 -17 -3 -4 -10 7
-18 15 -18 17 0 8 8 3 21 -13z m-277 -2 c3 -5 -1 -11 -9 -14 -9 -4 -12 -1 -8
9 6 16 10 17 17 5z m-42 -47 c-6 -12 -9 -7 -9 16 0 23 3 28 9 16 5 -9 5 -23 0
-32z m84 11 c1 -14 -3 -25 -9 -25 -6 0 -8 3 -4 6 3 3 2 17 -3 30 -7 17 -6 22
3 18 7 -2 13 -15 13 -29z m119 26 c3 -5 2 -12 -3 -15 -5 -3 -9 1 -9 9 0 17 3
19 12 6z m220 0 c-9 -8 -36 -10 -30 -2 2 4 11 8 20 8 8 0 13 -3 10 -6z m-561
-12 c7 6 18 4 30 -5 11 -8 15 -14 9 -14 -7 0 -15 5 -18 10 -4 6 -11 8 -16 5
-13 -9 -11 -25 4 -22 7 1 11 -7 10 -20 -2 -14 2 -22 9 -20 17 3 18 -43 2 -50
-11 -4 -10 -9 2 -29 15 -22 15 -24 0 -30 -9 -4 -20 -4 -23 0 -4 3 1 6 11 6 14
0 15 4 6 20 -6 11 -16 18 -22 14 -7 -4 -6 -9 3 -15 8 -5 9 -9 3 -9 -6 0 -13 3
-17 6 -8 8 15 44 28 44 6 0 11 9 12 20 1 11 -4 19 -10 17 -7 -1 -11 8 -10 21
2 13 -1 21 -7 17 -6 -3 -13 1 -16 9 -3 9 -10 13 -15 10 -5 -3 -6 3 -2 12 4 12
8 14 11 6 3 -9 8 -10 16 -3z m-37 -43 c-3 -6 0 -20 6 -31 9 -18 9 -19 -7 -6
-9 8 -15 20 -12 27 7 17 -19 50 -28 36 -4 -7 -12 -12 -19 -12 -6 0 -2 6 9 14
17 13 21 12 37 -2 10 -8 16 -20 14 -26z m119 19 c-3 -9 -11 -13 -18 -9 -8 5
-9 0 -5 -16 4 -16 3 -20 -5 -12 -13 13 -2 46 12 37 5 -3 10 2 10 11 0 10 3 15
6 11 4 -3 4 -13 0 -22z m-836 -2 c-1 -14 -27 -43 -33 -37 -7 7 14 44 25 44 5
0 8 -3 8 -7z m66 -7 c23 -23 16 -30 -12 -11 -21 14 -28 15 -35 4 -4 -7 -5 -17
-3 -21 6 -10 -10 -11 -19 -1 -9 9 23 43 40 43 8 0 21 -6 29 -14z m880 -8 c7 6
-4 -11 -24 -38 -2 -3 -3 2 -2 10 4 29 0 41 -12 34 -7 -5 -8 -3 -3 6 6 10 11
10 20 -3 7 -9 16 -13 21 -9z m110 -37 c0 -25 -4 -38 -12 -38 -9 0 -10 4 -5 11
10 13 9 55 -3 76 -7 12 -7 13 5 2 7 -7 14 -30 15 -51z m79 49 c3 -5 1 -10 -4
-10 -6 0 -11 5 -11 10 0 6 2 10 4 10 3 0 8 -4 11 -10z m40 -8 c-3 -3 -11 0
-18 7 -9 10 -8 11 6 5 10 -3 15 -9 12 -12z m-488 -14 c-3 -8 -6 -5 -6 6 -1 11
2 17 5 13 3 -3 4 -12 1 -19z m-589 -13 c12 1 22 -2 22 -8 0 -5 6 -4 15 3 8 6
19 9 24 6 5 -4 13 -1 17 5 4 7 3 9 -4 5 -6 -3 -13 -2 -16 3 -4 5 2 8 11 6 10
-1 17 -9 15 -17 -4 -24 25 -43 43 -28 8 7 12 17 8 23 -4 6 0 8 9 4 9 -3 20 -1
26 5 6 6 12 6 17 -1 3 -6 3 -10 -2 -9 -4 1 -18 -3 -31 -10 -19 -11 -21 -16
-10 -35 20 -37 19 -50 -4 -44 -15 4 -29 -3 -49 -25 -31 -32 -38 -54 -15 -45 9
4 25 -8 41 -29 23 -30 29 -33 43 -22 11 9 10 5 -3 -14 -15 -19 -23 -23 -33
-15 -9 7 -17 6 -29 -5 -14 -14 -13 -19 8 -49 45 -65 50 -69 70 -59 15 8 17 7
14 -10 -2 -11 1 -22 6 -25 5 -4 7 -11 3 -16 -4 -6 -14 -3 -25 7 -10 9 -19 13
-19 9 0 -5 -6 0 -14 10 -7 10 -19 20 -27 21 -8 2 -24 5 -37 8 -13 3 -35 1 -49
-5 -23 -8 -24 -8 -13 6 7 8 15 13 18 11 2 -3 14 -1 25 5 15 9 18 8 11 -3 -4
-7 3 -4 16 7 20 17 22 17 17 3 -3 -10 -2 -20 2 -22 7 -5 8 10 2 49 -1 6 -5 4
-10 -3 -6 -10 -10 -10 -21 3 -10 12 -10 15 1 15 11 0 11 3 -1 11 -13 9 -13 11
-1 16 10 4 8 9 -10 19 -24 13 -24 13 8 10 20 -2 30 1 26 7 -4 6 -1 7 8 2 11
-6 11 -5 2 5 -6 7 -10 18 -9 24 2 6 1 7 -2 3 -2 -5 -11 -2 -21 7 -15 14 -20
16 -39 16 -5 0 -9 7 -9 15 0 8 4 15 9 15 4 0 8 -5 8 -11 0 -5 5 -7 11 -3 6 3
7 9 2 13 -12 8 -10 22 5 46 12 19 13 19 7 -2 -4 -14 -2 -23 4 -23 6 0 10 3 10
8 -4 22 4 29 31 27 17 -1 33 2 37 8 4 6 1 7 -7 2 -9 -6 -11 -4 -5 6 8 12 6 12
-8 0 -20 -16 -23 -2 -4 18 10 11 9 12 -3 5 -21 -12 -40 -14 -40 -4 0 4 -9 10
-21 13 -14 4 -18 10 -13 19 6 10 5 10 -7 2 -8 -6 -24 -10 -36 -8 -23 4 -25 0
-25 -46 0 -44 3 -51 18 -48 10 2 19 -2 21 -7 2 -6 -12 -11 -32 -12 -29 0 -33
2 -24 13 6 7 7 19 3 26 -11 18 -11 40 0 56 6 9 3 18 -9 30 -18 16 -18 16 -5
-1 11 -15 11 -20 -4 -35 -17 -16 -18 -16 -11 8 4 17 3 21 -3 12 -5 -8 -13 -14
-17 -14 -4 0 -12 6 -17 14 -8 10 -9 9 -5 -3 4 -12 -2 -16 -25 -16 l-31 0 22
19 c16 12 31 16 49 11 20 -5 24 -3 19 10 -8 22 2 28 27 13 11 -7 31 -12 44
-11z m566 14 c-2 -4 6 -15 18 -23 12 -9 19 -18 16 -22 -4 -3 -20 8 -36 24 -24
25 -26 30 -12 29 10 -1 17 -4 14 -8z m73 -11 c-3 -8 -6 -5 -6 6 -1 11 2 17 5
13 3 -3 4 -12 1 -19z m113 12 c0 -5 -5 -10 -11 -10 -5 0 -7 5 -4 10 3 6 8 10
11 10 2 0 4 -4 4 -10z m-143 -63 c14 17 14 17 9 1 -6 -19 9 -25 17 -8 3 6 4 5
3 -2 -2 -7 -14 -13 -27 -13 -13 1 -28 -4 -32 -10 -5 -6 -7 -4 -5 5 3 8 -6 25
-19 38 -13 12 -23 27 -23 33 0 5 14 -6 31 -26 30 -33 32 -34 46 -18z m567 41
c-3 -4 -11 -5 -19 -1 -21 7 -19 12 4 10 11 0 18 -5 15 -9z m-294 -17 c0 -13
-29 -8 -34 5 -3 7 2 10 15 7 10 -3 19 -9 19 -12z m-220 -1 c0 -5 -4 -10 -10
-10 -5 0 -10 5 -10 10 0 6 5 10 10 10 6 0 10 -4 10 -10z m57 -12 c-3 -8 -6 -5
-6 6 -1 11 2 17 5 13 3 -3 4 -12 1 -19z m39 13 c-4 -5 0 -12 6 -14 8 -3 6 -6
-4 -6 -18 -1 -24 10 -11 22 9 10 15 8 9 -2z m519 -1 c3 -5 1 -10 -4 -10 -6 0
-11 5 -11 10 0 6 2 10 4 10 3 0 8 -4 11 -10z m-1255 -10 c0 -3 -5 -11 -11 -17
-15 -15 -3 -34 17 -26 11 4 12 9 3 19 -9 11 -9 14 0 14 7 0 9 5 5 12 -4 7 -3
8 5 4 6 -4 9 -12 5 -17 -3 -6 2 -9 11 -7 10 2 20 -4 22 -12 3 -10 2 -11 -4 -4
-6 9 -11 8 -21 -2 -7 -8 -10 -14 -6 -14 3 0 1 -6 -5 -13 -6 -8 -7 -18 -3 -23
4 -5 -2 -1 -14 9 -11 9 -24 14 -29 10 -4 -5 -5 -2 -1 5 4 6 3 12 -1 12 -5 0
-9 9 -9 20 0 11 4 20 9 20 4 0 6 4 3 8 -3 5 1 9 9 9 8 0 15 -3 15 -7z m777 -5
c0 -8 -4 -12 -9 -9 -5 3 -6 10 -3 15 9 13 12 11 12 -6z m380 0 c0 -8 -4 -12
-9 -9 -5 3 -6 10 -3 15 9 13 12 11 12 -6z m-1235 -29 c3 5 4 4 2 -2 -1 -6 2
-16 8 -22 8 -8 8 -15 0 -25 -7 -8 -9 -17 -5 -21 11 -10 12 -36 2 -36 -8 0 -13
15 -10 33 0 4 -4 7 -11 7 -6 0 -4 8 6 19 20 22 3 42 -17 22 -9 -9 -7 -10 8 -5
19 7 19 6 3 -12 -12 -13 -14 -24 -8 -34 14 -22 12 -26 -10 -26 -20 0 -25 7
-13 19 10 11 12 77 1 83 -5 3 -4 12 3 21 11 12 14 11 24 -8 7 -12 14 -18 17
-13z m973 16 c-3 -3 -11 0 -18 7 -9 10 -8 11 6 5 10 -3 15 -9 12 -12z m-185
-38 c-1 -4 4 -11 12 -16 11 -8 11 -9 0 -6 -8 2 -13 7 -12 12 1 5 -5 13 -14 18
-9 5 -16 14 -16 19 0 6 7 4 15 -5 9 -8 15 -18 15 -22z m20 21 c19 -22 8 -25
-12 -3 -10 10 -14 18 -9 18 5 0 14 -7 21 -15z m40 5 c8 -5 11 -10 5 -10 -5 0
-17 5 -25 10 -8 5 -10 10 -5 10 6 0 17 -5 25 -10z m235 0 c-3 -5 -12 -10 -18
-10 -7 0 -6 4 3 10 19 12 23 12 15 0z m-505 -30 c-8 -5 -17 -7 -19 -4 -3 3 1
9 9 14 8 5 17 7 19 4 3 -3 -1 -9 -9 -14z m294 9 c-5 -8 1 -10 19 -7 15 3 24 1
21 -3 -7 -12 -41 -12 -48 0 -3 4 -3 11 1 15 10 10 15 7 7 -5z m-178 -29 c23
-9 25 -40 2 -40 -6 0 -5 6 2 15 15 18 -1 20 -19 3 -10 -11 -11 -10 -6 3 4 10
2 20 -4 24 -6 3 -11 12 -10 18 0 8 2 8 6 -1 3 -7 16 -17 29 -22z m148 14 c3
-8 2 -12 -4 -9 -6 3 -10 10 -10 16 0 14 7 11 14 -7z m103 -6 c-3 -8 -6 -5 -6
6 -1 11 2 17 5 13 3 -3 4 -12 1 -19z m-304 -5 c-3 -7 -9 -13 -15 -13 -5 0 -7
4 -3 9 3 5 -3 12 -12 14 -10 3 -6 4 8 4 18 -1 25 -6 22 -14z m498 4 c-6 -8 -9
-16 -6 -19 3 -3 -3 -11 -12 -19 -16 -13 -17 -12 -4 4 7 9 10 17 6 17 -4 0 -2
7 5 15 7 8 15 15 17 15 3 0 0 -6 -6 -13z m-125 -47 c1 -26 -4 -44 -15 -52 -14
-11 -14 -11 -5 2 6 8 11 34 9 58 -1 23 1 40 4 37 3 -3 6 -23 7 -45z m159 41
c3 -5 2 -12 -3 -15 -5 -3 -9 1 -9 9 0 17 3 19 12 6z m-399 -28 c-1 -17 -6 -27
-13 -25 -7 1 -13 -7 -13 -17 0 -14 5 -18 19 -14 10 3 21 1 24 -4 3 -5 -7 -8
-21 -7 -22 1 -27 6 -27 25 0 15 5 23 14 21 10 -2 12 4 7 23 -4 14 -2 25 2 25
5 0 9 -12 8 -27z m84 1 c0 -2 -9 0 -20 6 -11 6 -20 13 -20 16 0 2 9 0 20 -6
11 -6 20 -13 20 -16z m124 18 c2 -4 -4 -8 -14 -8 -10 0 -16 4 -14 8 3 4 9 8
14 8 5 0 11 -4 14 -8z m76 -6 c-7 -7 -13 -7 -20 0 -6 6 -3 10 10 10 13 0 16
-4 10 -10z m-983 -21 c5 -4 2 -5 -4 -1 -7 4 -13 3 -13 -1 0 -5 -9 -9 -19 -10
-12 -1 -18 3 -15 11 5 14 39 15 51 1z m661 -5 c-7 -10 -14 -18 -15 -16 -6 6 9
36 18 36 5 0 4 -9 -3 -20z m102 3 c0 -3 -7 -3 -15 1 -18 6 -19 1 -5 -24 9 -16
7 -18 -11 -15 -12 3 -24 7 -28 11 -3 4 2 4 13 0 14 -5 17 -3 12 10 -8 21 1 34
19 27 8 -3 15 -7 15 -10z m64 -12 c-2 -3 -12 3 -22 13 -16 17 -16 18 5 5 12
-7 20 -15 17 -18z m46 19 c8 -5 11 -10 5 -10 -5 0 -17 5 -25 10 -8 5 -10 10
-5 10 6 0 17 -5 25 -10z m-250 -30 c20 -15 23 -21 13 -31 -7 -7 -13 -9 -13 -3
0 5 -5 2 -10 -6 -8 -12 -9 -9 -7 10 3 15 -3 30 -12 37 -9 7 -11 12 -6 12 6 1
21 -8 35 -19z m176 8 c5 -7 3 -8 -6 -3 -10 6 -12 4 -6 -11 5 -14 4 -16 -5 -7
-6 6 -8 16 -5 22 9 14 13 14 22 -1z m299 3 c3 -5 2 -12 -3 -15 -5 -3 -9 1 -9
9 0 17 3 19 12 6z m-1209 -14 c8 3 14 1 14 -5 0 -6 -11 -9 -25 -8 -13 2 -22
-1 -19 -6 3 -5 12 -7 20 -4 15 6 19 -9 5 -19 -10 -5 -41 20 -41 34 0 14 14 21
23 12 5 -5 16 -7 23 -4z m142 1 c7 -1 11 -7 8 -14 -3 -8 0 -16 6 -20 7 -4 8
-3 4 4 -4 7 -3 12 3 12 15 0 24 -20 9 -21 -33 -3 -38 -4 -38 -11 0 -26 1 -29
8 -24 4 2 8 -4 8 -14 0 -10 -6 -16 -13 -13 -7 3 -11 8 -10 11 1 4 -2 7 -8 7
-5 0 -9 -3 -7 -7 1 -5 -2 -8 -8 -8 -17 0 -11 25 10 48 13 14 16 22 8 22 -9 0
-9 3 2 11 13 9 12 10 -2 5 -10 -3 -25 -9 -33 -12 -10 -4 -14 -1 -12 7 2 8 2
11 0 6 -3 -4 -9 -5 -14 -2 -5 4 -6 -1 -2 -11 5 -14 3 -15 -18 -5 -22 11 -22
11 -6 -2 15 -13 16 -15 2 -21 -8 -3 -15 -1 -15 5 0 6 -7 3 -16 -5 -18 -19 -30
-20 -40 -4 -5 8 -2 9 10 5 12 -5 22 2 35 23 10 17 20 27 24 24 3 -3 13 -1 23
4 10 5 29 8 43 6 14 -3 32 -5 39 -6z m536 -13 c-10 -8 -23 -15 -28 -15 -6 0
-1 7 10 15 10 8 23 15 28 15 6 0 1 -7 -10 -15z m629 0 c4 -8 3 -16 -1 -19 -4
-3 -9 4 -9 15 -2 23 3 25 10 4z m-337 -18 c0 -13 -6 -24 -13 -24 -6 0 -9 5 -5
11 4 6 7 14 8 19 5 26 10 23 10 -6z m-273 6 c-7 -2 -13 -9 -13 -14 0 -6 5 -7
10 -4 6 3 10 1 10 -4 0 -6 -5 -11 -11 -11 -8 0 -7 -5 1 -15 7 -9 10 -18 6 -22
-3 -3 -6 -1 -6 5 0 6 -8 9 -17 6 -11 -4 -14 -3 -7 3 6 4 10 17 8 27 -3 24 3
36 19 35 9 0 9 -2 0 -6z m-591 -10 c-6 -2 -10 -9 -6 -14 3 -5 -2 -12 -10 -15
-12 -5 -13 -10 -5 -26 6 -11 16 -17 23 -15 7 3 26 -5 42 -18 26 -22 27 -24 7
-20 -13 2 -23 0 -23 -5 0 -11 -49 -5 -62 8 -12 12 -41 4 -32 -9 3 -5 -2 -6
-10 -3 -12 5 -13 11 -5 25 5 10 14 19 20 19 6 0 8 -4 5 -8 -3 -5 1 -9 9 -9 8
0 16 5 18 12 5 11 -4 13 -70 16 l-36 2 23 19 c21 17 23 17 35 2 6 -10 17 -14
23 -10 5 3 12 0 15 -6 2 -7 4 -1 3 15 -1 22 -3 25 -12 12 -12 -17 -24 -20 -24
-6 0 9 59 41 75 40 6 0 4 -3 -3 -6z m801 -12 c3 -13 1 -18 -9 -14 -7 2 -10 11
-7 19 7 19 10 18 16 -5z m-243 -6 c0 -8 -9 -19 -20 -25 -16 -9 -18 -8 -14 5 3
8 10 12 15 9 5 -3 9 2 9 10 0 9 2 16 5 16 3 0 5 -7 5 -15z m105 5 c-3 -5 -11
-10 -16 -10 -6 0 -7 5 -4 10 3 6 11 10 16 10 6 0 7 -4 4 -10z m42 -12 c2 -17
0 -19 -7 -8 -5 8 -6 18 -4 22 8 12 10 10 11 -14z m47 8 c-3 -9 -12 -12 -22 -9
-15 6 -9 11 25 22 1 1 0 -5 -3 -13z m151 -4 c-3 -3 -11 0 -18 7 -9 10 -8 11 6
5 10 -3 15 -9 12 -12z m110 8 c-3 -5 -12 -10 -18 -10 -7 0 -6 4 3 10 19 12 23
12 15 0z m-385 -20 c0 -5 -4 -10 -10 -10 -5 0 -10 5 -10 10 0 6 5 10 10 10 6
0 10 -4 10 -10z m57 -19 c-2 -10 -10 -25 -18 -34 -14 -13 -17 -13 -27 4 -8 12
-8 19 -2 19 5 0 10 -4 10 -10 0 -19 26 1 27 22 2 16 -1 18 -10 9 -6 -6 -15
-11 -21 -11 -5 0 -1 6 9 14 23 17 36 12 32 -13z m478 19 c3 -5 1 -10 -4 -10
-6 0 -11 5 -11 10 0 6 2 10 4 10 3 0 8 -4 11 -10z m-384 -27 c13 -17 13 -17
-6 -3 -11 8 -22 16 -24 17 -2 2 0 3 6 3 6 0 17 -8 24 -17z m53 9 c2 -4 -4 -8
-14 -8 -10 0 -16 4 -14 8 3 4 9 8 14 8 5 0 11 -4 14 -8z m-84 -17 c5 3 12 0
16 -6 4 -8 3 -9 -4 -5 -7 4 -12 1 -12 -6 0 -9 -3 -9 -10 2 -5 8 -9 20 -9 25 0
6 3 4 6 -3 2 -6 9 -10 13 -7z m161 -2 c13 -16 12 -17 -3 -4 -17 13 -22 21 -14
21 2 0 10 -8 17 -17z m35 -42 c0 -33 -3 -48 -13 -48 -8 0 -9 5 -4 11 5 6 8 30
6 54 -1 23 1 40 4 37 3 -4 6 -28 7 -54z m-341 24 c11 -13 46 -29 58 -27 4 1 7
-3 7 -9 0 -6 -6 -9 -14 -6 -7 3 -20 0 -27 -6 -11 -10 -11 -9 -1 4 11 14 9 18
-13 23 -14 4 -23 11 -20 16 3 6 -3 10 -14 10 -12 0 -21 4 -21 10 0 12 31 2 45
-15z m260 16 c3 -5 2 -12 -3 -15 -5 -3 -9 1 -9 9 0 17 3 19 12 6z m125 -5 c-7
-7 -13 -7 -20 0 -6 6 -3 10 10 10 13 0 16 -4 10 -10z m-182 -7 c-2 -6 -7 -10
-12 -9 -5 1 -13 -4 -18 -12 -8 -10 -9 -10 -5 2 2 8 10 14 16 13 6 -2 11 2 11
7 0 6 3 10 6 10 3 0 4 -5 2 -11z m18 -17 c-17 -16 -18 -16 -5 5 7 12 15 20 18
17 3 -2 -3 -12 -13 -22z m-99 12 c-2 -3 -17 -7 -33 -10 -17 -2 -24 -1 -17 4
13 8 58 14 50 6z m5 -21 c-6 -2 -9 -10 -6 -15 4 -7 2 -8 -5 -4 -13 9 -5 26 12
25 9 0 8 -2 -1 -6z m-28 -18 c3 -8 1 -15 -4 -15 -6 0 -10 7 -10 15 0 8 2 15 4
15 2 0 6 -7 10 -15z m166 -4 c0 -13 -29 -8 -34 5 -3 7 2 10 15 7 10 -3 19 -9
19 -12z m-57 -6 c-3 -9 -8 -14 -10 -11 -3 3 -2 9 2 15 9 16 15 13 8 -4z m457
9 c0 -8 -19 -13 -24 -6 -3 5 1 9 9 9 8 0 15 -2 15 -3z m-483 -19 c0 -8 -4 -12
-9 -9 -5 3 -6 10 -3 15 9 13 12 11 12 -6z m-104 -24 c-2 -15 1 -20 9 -15 7 4
8 3 4 -5 -11 -16 -28 -2 -21 18 3 12 -1 17 -15 17 -11 0 -20 -6 -20 -13 0 -16
-16 -17 -26 -1 -4 6 -3 8 3 5 6 -4 13 -1 16 6 3 8 16 13 29 12 17 -2 22 -7 21
-24z m77 25 c0 -2 -7 -6 -15 -10 -8 -3 -15 -1 -15 4 0 6 7 10 15 10 8 0 15 -2
15 -4z m145 -14 c-3 -3 -11 0 -18 7 -9 10 -8 11 6 5 10 -3 15 -9 12 -12z m265
14 c0 -3 -4 -8 -10 -11 -5 -3 -10 -1 -10 4 0 6 5 11 10 11 6 0 10 -2 10 -4z
m-446 -21 c3 -8 1 -15 -4 -15 -6 0 -10 7 -10 15 0 8 2 15 4 15 2 0 6 -7 10
-15z m56 -5 c8 -5 11 -10 5 -10 -5 0 -17 5 -25 10 -8 5 -10 10 -5 10 6 0 17
-5 25 -10z m97 -12 c-3 -8 -6 -5 -6 6 -1 11 2 17 5 13 3 -3 4 -12 1 -19z m138
12 c-3 -5 -12 -10 -18 -10 -7 0 -6 4 3 10 19 12 23 12 15 0z m-405 -21 c0 -5
4 -8 9 -5 14 9 36 -23 24 -35 -7 -7 -17 -1 -32 20 -13 17 -18 31 -12 31 6 0
11 -5 11 -11z m54 -5 c3 -8 2 -12 -4 -9 -6 3 -10 10 -10 16 0 14 7 11 14 -7z
m83 2 c0 -8 -6 -12 -15 -9 -11 5 -11 7 0 14 7 5 13 9 14 9 0 0 1 -6 1 -14z
m57 3 c-5 -8 1 -10 19 -7 15 3 24 1 21 -3 -7 -12 -41 -12 -48 0 -3 4 -3 11 1
15 10 10 15 7 7 -5z m402 -15 c1 -9 0 -13 -4 -10 -3 4 -7 14 -8 22 -1 9 0 13
4 10 3 -4 7 -14 8 -22z m-434 -26 c-6 -6 -12 -6 -17 3 -6 8 -4 10 5 4 9 -5 10
-1 6 16 -6 21 -6 22 5 6 7 -13 8 -22 1 -29z m-198 17 c-10 -8 -23 -15 -28 -15
-6 0 -1 7 10 15 10 8 23 15 28 15 6 0 1 -7 -10 -15z m136 5 c0 -5 -8 -10 -17
-10 -15 0 -16 2 -3 10 19 12 20 12 20 0z m370 6 c0 -2 -8 -10 -17 -17 -16 -13
-17 -12 -4 4 13 16 21 21 21 13z m-134 -56 c1 -26 -4 -44 -15 -52 -14 -11 -14
-11 -5 2 6 8 11 34 9 58 -1 23 1 40 4 37 3 -3 6 -23 7 -45z m-338 28 c15 -15
15 -28 1 -28 -5 0 -8 4 -5 9 3 5 -1 12 -10 15 -11 4 -15 2 -11 -7 3 -8 1 -20
-4 -28 -5 -9 -7 -4 -5 16 2 17 4 31 5 33 3 6 18 1 29 -10z m58 -4 c-5 -12 -1
-14 17 -9 19 5 20 4 4 -5 -9 -6 -21 -9 -26 -5 -5 3 -12 1 -16 -5 -6 -9 7 -14
28 -11 12 2 8 -6 -10 -20 -9 -8 -14 -9 -10 -3 4 7 0 15 -9 18 -13 5 -13 9 3
31 21 28 28 32 19 9z m66 9 c-6 -2 -10 -9 -7 -13 3 -5 1 -11 -4 -14 -7 -5 -8
11 -2 32 1 1 7 2 14 1 9 0 9 -2 -1 -6z m182 -1 c2 -4 -4 -8 -14 -8 -10 0 -16
4 -14 8 3 4 9 8 14 8 5 0 11 -4 14 -8z m76 -6 c-7 -7 -13 -7 -20 0 -6 6 -3 10
10 10 13 0 16 -4 10 -10z m-225 -24 c-3 -3 -11 0 -18 7 -9 10 -8 11 6 5 10 -3
15 -9 12 -12z m59 3 c11 -8 16 -15 10 -15 -5 0 -18 7 -28 15 -11 8 -16 15 -10
15 5 0 18 -7 28 -15z m56 5 c8 -5 11 -10 5 -10 -5 0 -17 5 -25 10 -8 5 -10 10
-5 10 6 0 17 -5 25 -10z m-129 -32 c11 -21 11 -22 -4 -9 -10 7 -17 17 -17 22
0 15 9 10 21 -13z m55 10 c5 -7 3 -8 -6 -3 -10 6 -12 4 -6 -11 5 -14 4 -16 -5
-7 -6 6 -8 16 -5 22 9 14 13 14 22 -1z m-86 -24 c-1 -4 4 -11 12 -16 11 -8 10
-9 -1 -6 -8 2 -15 15 -17 29 -1 13 0 18 2 12 3 -7 5 -15 4 -19z m-28 4 c-9 -9
-7 -15 6 -25 15 -13 14 -13 -6 -3 -19 9 -21 14 -11 26 6 8 14 14 17 14 3 0 1
-5 -6 -12z m111 -37 c3 -13 1 -18 -9 -14 -7 2 -10 11 -7 19 7 19 10 18 16 -5z
m100 6 c4 3 7 1 7 -5 0 -17 -16 -15 -31 6 -12 15 -12 16 2 5 9 -7 19 -10 22
-6z m-373 -7 c0 -5 -4 -10 -10 -10 -5 0 -10 5 -10 10 0 6 5 10 10 10 6 0 10
-4 10 -10z m132 -12 c-7 -7 -12 -8 -12 -2 0 14 12 26 19 19 2 -3 -1 -11 -7
-17z m202 14 c3 -5 -1 -9 -9 -9 -8 0 -12 4 -9 9 3 4 7 8 9 8 2 0 6 -4 9 -8z
m-114 -12 c0 -5 -2 -10 -4 -10 -3 0 -8 5 -11 10 -3 6 -1 10 4 10 6 0 11 -4 11
-10z m-125 -22 c-9 -6 -19 -7 -22 -4 -4 3 -1 6 6 6 7 0 9 4 6 10 -4 6 1 7 11
3 15 -6 15 -7 -1 -15z m99 -10 c1 -14 -2 -24 -7 -21 -5 3 -7 14 -4 24 4 14 0
19 -14 19 -10 0 -18 -5 -16 -12 1 -6 -11 -13 -28 -14 -20 -2 -25 0 -16 5 8 5
20 7 28 4 8 -3 13 -2 12 3 -3 20 2 25 23 22 15 -2 22 -10 22 -30z m443 17 c0
-8 -4 -12 -9 -9 -5 3 -6 10 -3 15 9 13 12 11 12 -6z m-386 -22 c12 -16 12 -17
-2 -6 -9 7 -19 10 -22 6 -4 -3 -7 -1 -7 5 0 17 16 15 31 -5z m53 9 c2 -4 -4
-8 -14 -8 -10 0 -16 4 -14 8 3 4 9 8 14 8 5 0 11 -4 14 -8z m431 -2 c3 -5 1
-10 -4 -10 -6 0 -11 5 -11 10 0 6 2 10 4 10 3 0 8 -4 11 -10z m-354 -17 c13
-16 12 -17 -3 -4 -17 13 -22 21 -14 21 2 0 10 -8 17 -17z m35 -9 c1 -9 0 -13
-4 -10 -3 4 -7 14 -8 22 -1 9 0 13 4 10 3 -4 7 -14 8 -22z m-242 0 c3 -8 2
-12 -4 -9 -6 3 -10 10 -10 16 0 14 7 11 14 -7z m161 7 c3 -5 2 -12 -3 -15 -5
-3 -9 1 -9 9 0 17 3 19 12 6z m299 1 c2 -4 -5 -9 -17 -9 -17 -2 -19 0 -7 7 18
12 18 12 24 2z m-419 -21 c-3 -6 -11 -11 -16 -11 -5 0 -4 6 3 14 14 16 24 13
13 -3z m62 -3 c-3 -8 -6 -5 -6 6 -1 11 2 17 5 13 3 -3 4 -12 1 -19z m24 -1
c-10 -9 -11 -8 -5 6 3 10 9 15 12 12 3 -3 0 -11 -7 -18z m216 -4 c0 -9 -4 -10
-14 -2 -7 6 -13 12 -13 14 0 1 6 2 13 2 8 0 14 -6 14 -14z m-284 -8 c-3 -9 -8
-14 -10 -11 -3 3 -2 9 2 15 9 16 15 13 8 -4z m147 11 c0 -2 -8 -10 -17 -17
-16 -13 -17 -12 -4 4 13 16 21 21 21 13z m-103 -48 c-3 -7 -5 -2 -5 12 0 14 2
19 5 13 2 -7 2 -19 0 -25z m109 13 c-10 -11 -13 -20 -7 -22 6 -2 1 -10 -11
-18 -21 -13 -22 -13 -9 2 7 10 10 17 6 17 -5 0 0 9 10 20 10 11 20 20 23 20 3
0 -3 -9 -12 -19z m-52 -3 c-3 -4 0 -8 7 -8 7 0 9 -3 6 -6 -4 -4 -13 -1 -22 6
-12 10 -15 10 -15 0 0 -8 -3 -11 -6 -7 -9 9 3 24 20 24 8 0 13 -4 10 -9z m210
4 c3 -5 -1 -9 -9 -9 -8 0 -12 4 -9 9 3 4 7 8 9 8 2 0 6 -4 9 -8z m132 -18 c1
-9 0 -13 -4 -10 -3 4 -7 14 -8 22 -1 9 0 13 4 10 3 -4 7 -14 8 -22z m-211 -3
c-9 -8 -36 -10 -30 -2 2 4 11 8 20 8 8 0 13 -3 10 -6z m32 -6 c0 -8 -4 -12 -9
-9 -5 3 -6 10 -3 15 9 13 12 11 12 -6z m-67 -30 c0 -2 -6 -8 -13 -14 -10 -8
-14 -7 -14 2 0 8 6 14 14 14 7 0 13 -1 13 -2z m30 -19 c0 -2 -7 -7 -16 -10 -8
-3 -12 -2 -9 4 6 10 25 14 25 6z m71 -13 c13 -16 12 -17 -3 -4 -17 13 -22 21
-14 21 2 0 10 -8 17 -17z m-36 -21 c-3 -3 -11 0 -18 7 -9 10 -8 11 6 5 10 -3
15 -9 12 -12z m198 -27 c-3 -9 -8 -14 -10 -11 -3 3 -2 9 2 15 9 16 15 13 8 -4z
m-93 1 c0 -3 -4 -8 -10 -11 -5 -3 -10 -1 -10 4 0 6 5 11 10 11 6 0 10 -2 10
-4z m34 -4 c3 -5 -1 -9 -9 -9 -8 0 -12 4 -9 9 3 4 7 8 9 8 2 0 6 -4 9 -8z m32
-64 c3 -4 -1 -5 -10 -4 -8 1 -18 5 -22 8 -3 4 1 5 10 4 8 -1 18 -5 22 -8z"/>
<path d="M3180 2900 c0 -5 -8 -10 -17 -10 -17 -1 -17 -1 -1 -10 10 -6 14 -18
11 -31 -5 -16 -8 -18 -15 -7 -7 9 -8 8 -6 -7 2 -11 9 -21 16 -21 6 -1 20 -2
30 -3 14 -1 15 -3 2 -11 -9 -6 -17 -5 -21 2 -4 7 -8 6 -12 -3 -4 -11 -6 -11
-6 -1 -1 7 -6 10 -13 6 -7 -4 -8 -3 -4 4 4 7 3 12 -3 12 -19 0 -21 -19 -4 -29
17 -9 17 -10 1 -16 -10 -4 -15 -11 -12 -16 3 -5 0 -9 -6 -9 -6 0 -10 7 -8 16
2 10 -2 19 -9 21 -8 3 -11 -3 -8 -16 3 -14 0 -18 -12 -14 -11 4 -11 8 -3 13 9
5 9 9 1 14 -6 4 -11 3 -11 -2 0 -8 -15 -9 -55 -3 -5 1 -4 5 4 10 9 6 10 11 2
15 -6 4 -11 3 -11 -2 0 -5 -7 -9 -16 -9 -14 0 -14 2 2 15 15 12 16 14 2 9 -9
-3 -22 1 -30 11 -11 15 -11 16 2 7 9 -5 7 -2 -3 8 -11 9 -15 17 -9 17 5 0 15
-7 22 -15 15 -19 34 -20 27 -2 -3 8 1 14 8 14 10 0 11 -5 4 -18 -12 -22 2 -32
19 -13 8 9 9 14 2 14 -6 0 -8 5 -5 11 5 6 12 4 22 -8 13 -16 14 -16 9 -1 -3
10 -1 20 5 23 5 4 9 3 8 -2 -3 -19 2 -34 10 -29 4 3 7 18 5 33 -2 26 -2 27 12
9 7 -11 16 -17 19 -15 3 3 -2 14 -9 25 -14 19 -15 19 -39 -4 -14 -13 -28 -19
-31 -14 -7 11 -24 11 -43 -1 -6 -4 -14 -3 -18 3 -4 7 -12 7 -24 0 -10 -5 -22
-6 -27 -2 -5 4 -2 -1 5 -10 11 -15 11 -21 1 -33 -7 -8 -9 -15 -4 -15 4 0 -5
-13 -21 -30 -16 -16 -25 -31 -19 -31 5 -1 16 -2 24 -3 9 0 15 -11 15 -25 0
-15 6 -25 18 -27 9 -1 17 1 17 6 0 4 10 6 23 6 12 -1 28 2 35 7 6 5 12 6 12 1
0 -5 7 1 15 13 15 22 55 28 55 9 0 -6 14 5 31 24 l31 34 13 -23 c8 -15 15 -20
19 -12 4 6 2 11 -5 11 -7 0 -4 7 7 15 19 14 19 15 -5 34 -22 17 -22 49 0 36
16 -11 10 7 -8 22 -16 13 -16 13 5 3 28 -14 30 5 2 20 -14 7 -20 7 -20 0z
m-189 -47 c13 -16 12 -17 -3 -4 -17 13 -22 21 -14 21 2 0 10 -8 17 -17z m-16
-56 c0 -7 5 -12 12 -12 7 0 21 -8 32 -17 12 -10 23 -13 26 -7 4 5 11 7 16 3 6
-4 6 -11 -2 -20 -6 -7 -15 -11 -20 -9 -4 3 -12 -3 -18 -12 -7 -12 -10 -13 -11
-4 0 11 -3 11 -15 1 -8 -7 -15 -9 -15 -6 0 4 -9 2 -19 -4 -16 -8 -19 -7 -17 8
2 9 -2 25 -8 34 -8 13 -13 15 -26 5 -8 -6 -2 3 14 21 17 18 26 32 22 32 -4 0
-4 5 0 11 7 13 29 -5 29 -24z"/>
<path d="M2953 2815 c4 -5 0 -16 -9 -26 -14 -16 -14 -19 5 -38 13 -13 16 -21
8 -25 -7 -2 -1 -3 13 -1 14 2 26 4 28 6 1 1 6 2 11 3 20 2 20 14 1 31 -11 10
-20 15 -20 10 0 -4 -7 -2 -15 5 -8 7 -13 16 -10 20 3 5 0 12 -7 16 -7 4 -10 3
-5 -1z m39 -50 c3 3 11 -3 19 -12 7 -10 9 -15 5 -11 -5 4 -14 3 -21 -2 -14
-12 -59 26 -49 41 4 6 13 4 23 -5 10 -9 20 -14 23 -11z"/>
<path d="M2964 2763 c16 -20 36 -23 36 -6 0 4 -3 3 -7 0 -3 -4 -16 1 -27 10
-21 18 -21 18 -2 -4z"/>
<path d="M3222 2865 c-7 -14 -17 -23 -22 -20 -6 3 -10 1 -10 -4 0 -14 27 -14
35 -1 4 6 10 8 15 5 16 -10 23 17 8 31 -13 13 -16 11 -26 -11z"/>
<path d="M3135 2859 c-4 -6 -14 -8 -22 -5 -8 3 -12 2 -9 -3 8 -12 -15 -29 -34
-26 -8 1 -21 -4 -28 -11 -10 -11 -10 -14 0 -14 9 0 9 -3 -2 -11 -12 -9 -11 -9
5 -4 11 4 26 8 33 8 20 1 97 77 78 77 -8 0 -18 -5 -21 -11z m-40 -48 c-9 -8
-36 -10 -30 -2 2 4 11 8 20 8 8 0 13 -3 10 -6z"/>
<path d="M3230 2795 c0 -8 4 -15 10 -15 5 0 7 7 4 15 -4 8 -8 15 -10 15 -2 0
-4 -7 -4 -15z"/>
<path d="M2851 2701 c-8 -14 -6 -17 11 -16 26 2 35 20 14 28 -9 4 -20 -1 -25
-12z"/>
<path d="M2798 2751 c-11 -11 -14 -21 -8 -31 5 -8 12 -11 17 -7 4 5 1 13 -7
18 -11 8 -10 9 8 4 22 -6 28 1 14 21 -5 8 -12 6 -24 -5z"/>
<path d="M3255 2537 c-23 -17 -3 -33 22 -18 11 6 13 11 5 11 -7 0 -10 5 -7 10
8 14 2 13 -20 -3z"/>
<path d="M3190 2524 c0 -6 -11 -16 -25 -22 -32 -15 -38 -15 -29 -1 5 8 1 8
-14 0 -12 -6 -24 -16 -27 -22 -5 -7 -11 -7 -20 1 -9 8 -15 8 -20 0 -10 -16
-28 -12 -21 5 4 12 2 13 -12 7 -9 -5 -25 -8 -35 -6 -12 1 -17 -2 -14 -11 3 -7
0 -18 -6 -24 -9 -9 -8 -11 6 -5 26 9 19 -26 -8 -44 l-20 -13 20 5 c20 6 20 6
1 -9 -14 -11 -16 -15 -5 -15 12 0 12 -2 -1 -10 -10 -6 -11 -10 -2 -10 7 0 2
-10 -10 -22 -13 -13 -31 -22 -41 -22 -13 1 -15 -2 -7 -11 6 -7 9 -18 8 -25 -5
-21 31 -20 46 1 11 16 15 17 19 6 3 -8 0 -21 -6 -28 -7 -7 -2 -5 10 5 24 19
46 14 37 -9 -3 -8 -9 -13 -12 -12 -20 6 -48 -31 -47 -63 2 -45 -3 -54 -21 -39
-8 6 -14 8 -14 3 0 -5 -4 -3 -9 5 -6 9 -11 10 -15 2 -4 -6 -2 -11 4 -11 6 0 8
-5 5 -10 -4 -6 -3 -10 2 -9 4 1 11 0 16 -1 4 -1 17 -3 30 -4 18 -1 22 -7 21
-33 0 -18 3 -30 7 -28 4 3 13 -2 20 -11 10 -13 10 -17 0 -24 -20 -12 -4 -29
21 -25 12 3 25 0 29 -6 4 -7 9 -4 13 7 4 10 4 15 0 12 -4 -4 -15 -3 -26 3 -15
8 -17 13 -8 25 7 7 16 12 20 9 4 -3 11 2 14 11 10 26 7 26 -22 5 -27 -19 -28
-19 -29 -1 -2 26 25 49 37 31 4 -8 10 -9 14 -3 8 14 -24 24 -39 12 -8 -6 -18
-5 -31 4 -18 14 -18 14 0 13 10 -1 21 5 24 13 4 12 3 13 -10 2 -21 -17 -44 8
-25 27 9 11 9 14 -1 18 -13 5 -7 23 9 23 6 0 8 -4 5 -8 -2 -4 0 -14 6 -22 8
-12 9 -12 4 2 -3 10 -1 20 5 23 5 4 7 11 4 16 -4 5 -1 9 5 9 7 0 9 -7 6 -16
-6 -14 -4 -15 9 -4 9 7 12 16 7 19 -5 3 -8 14 -6 24 1 9 -1 15 -5 12 -4 -2 -8
2 -8 10 0 10 4 12 12 5 17 -14 30 19 15 34 -8 8 -15 6 -25 -7 -10 -14 -14 -15
-18 -5 -4 10 -8 10 -16 -2 -7 -9 -11 -11 -11 -3 0 7 8 17 18 22 10 6 12 11 4
11 -7 0 -10 5 -6 11 5 8 9 8 14 -1 5 -9 9 -9 14 -1 4 6 3 11 -2 11 -5 0 -9 7
-9 16 0 14 2 14 14 -2 7 -10 13 -13 13 -7 0 6 -6 15 -12 21 -12 10 -19 12 -34
12 -4 0 -2 6 5 13 6 8 8 23 6 35 -3 12 -7 30 -9 40 -2 11 1 19 9 19 8 0 12 -9
9 -26 -3 -21 -2 -23 6 -9 6 9 19 15 30 13 11 -2 20 2 20 8 0 7 4 6 10 -3 6
-10 10 -11 10 -2 0 6 6 11 13 10 6 -2 11 3 9 11 -3 12 0 12 12 2 10 -8 16 -9
21 -1 5 8 11 8 20 0 14 -12 48 -3 40 11 -3 4 -13 6 -23 3 -14 -5 -14 -4 -2 4
22 16 39 -4 33 -38 -2 -18 0 -30 6 -30 10 0 16 22 12 43 -1 5 3 6 9 2 15 -9
12 -23 -9 -44 -17 -17 -18 -22 -5 -38 13 -17 15 -17 28 0 12 16 14 16 20 2 4
-10 2 -14 -5 -9 -7 4 -10 2 -8 -5 6 -17 25 -9 21 9 -1 8 -4 28 -5 44 -2 16
-12 35 -23 42 -10 7 -29 23 -41 36 -13 12 -23 18 -23 12z m76 -86 c0 -12 -36
-54 -36 -43 0 6 31 55 34 55 2 0 3 -6 2 -12z m-275 -51 c-9 -11 -8 -17 4 -27
14 -12 14 -15 -2 -32 -10 -11 -17 -23 -15 -27 1 -3 -3 -6 -8 -6 -6 0 -15 -6
-20 -14 -13 -21 -36 -21 -36 -1 0 10 3 17 7 15 9 -6 54 47 55 65 1 22 16 52
22 46 3 -3 0 -12 -7 -19z m59 -107 c0 -5 -2 -10 -4 -10 -3 0 -8 5 -11 10 -3 6
-1 10 4 10 6 0 11 -4 11 -10z m-33 -61 c-9 -6 -14 -16 -11 -22 5 -9 3 -9 -6 0
-11 10 -16 9 -27 -5 -9 -11 -12 -12 -7 -2 13 28 23 36 46 37 20 2 21 1 5 -8z
m-42 -58 c3 -5 2 -12 -3 -15 -5 -3 -9 1 -9 9 0 17 3 19 12 6z m-1 -39 c3 -5
-1 -9 -9 -9 -8 0 -12 4 -9 9 3 4 7 8 9 8 2 0 6 -4 9 -8z m28 -50 c-10 -3 -10
-7 0 -20 10 -14 10 -15 -2 -5 -20 18 -22 43 -2 35 11 -4 12 -7 4 -10z m22 -70
c3 -5 -1 -9 -9 -9 -8 0 -12 4 -9 9 3 4 7 8 9 8 2 0 6 -4 9 -8z"/>
<path d="M2983 2353 c4 -5 -7 -23 -23 -38 -17 -16 -30 -33 -30 -39 0 -6 7 0
16 12 8 12 21 19 27 16 7 -4 9 -3 4 1 -4 5 0 16 9 26 12 13 12 19 3 25 -7 4
-10 3 -6 -3z"/>
<path d="M2865 2470 c-3 -6 1 -7 9 -4 18 7 21 14 7 14 -6 0 -13 -4 -16 -10z"/>
<path d="M3140 2461 c-8 -17 -8 -21 2 -19 8 2 12 -5 10 -16 -3 -18 -2 -18 13
-6 15 13 15 15 1 26 -9 6 -16 15 -16 19 0 5 9 0 20 -10 16 -15 18 -21 7 -33
-10 -13 -9 -15 6 -9 10 4 21 7 23 7 3 0 0 9 -6 19 -5 11 -7 21 -2 24 4 2 1 2
-7 0 -7 -2 -19 2 -27 7 -9 9 -15 6 -24 -9z"/>
<path d="M3107 2455 c-11 -7 -27 -12 -38 -10 -10 2 -19 -2 -19 -8 0 -8 -3 -8
-9 1 -6 11 -10 10 -16 -5 -5 -10 -7 -22 -6 -27 1 -4 -4 -15 -11 -24 -7 -9 -8
-13 -2 -9 6 4 19 -2 29 -13 18 -20 17 -21 -6 -47 -13 -15 -16 -21 -6 -14 13
10 20 11 31 2 18 -15 17 -49 -2 -56 -9 -3 -10 -10 -3 -24 8 -14 6 -22 -8 -35
-10 -9 -20 -13 -23 -10 -3 3 -5 -3 -4 -13 0 -9 -5 -18 -11 -18 -7 0 -13 -3
-13 -7 0 -5 0 -11 0 -14 0 -4 6 -1 14 5 20 17 32 -5 14 -27 -11 -15 -11 -16 3
-4 9 7 22 11 29 10 7 -2 15 3 18 11 3 10 0 12 -12 8 -11 -5 -15 -3 -10 5 4 7
3 8 -4 4 -7 -4 -12 -2 -12 4 0 7 9 9 23 6 12 -3 16 -3 10 0 -7 3 -13 11 -13
17 0 8 4 7 12 -1 15 -15 28 -16 28 -2 0 6 -6 10 -14 10 -8 0 -18 5 -22 12 -5
7 -2 9 8 5 16 -6 19 8 6 28 -4 6 -3 17 1 24 6 9 11 10 15 2 4 -6 2 -11 -5 -11
-16 0 -3 -13 16 -16 21 -3 14 35 -8 42 -16 5 -17 8 -6 15 12 8 12 11 -1 19
-12 8 -12 10 -1 10 11 0 11 3 1 15 -11 13 -15 13 -21 3 -5 -7 -9 -8 -9 -2 0 6
3 14 7 18 4 3 8 16 10 28 3 18 1 19 -12 8 -13 -11 -16 -11 -13 1 2 8 -3 13
-10 11 -8 -1 -11 2 -8 7 7 10 23 9 46 -3 8 -4 2 4 -14 18 l-30 25 27 -3 c17
-2 24 1 20 8 -3 6 0 5 8 -1 16 -15 33 -17 24 -3 -3 6 1 7 10 4 10 -4 14 -14
10 -28 -2 -11 -2 -15 1 -8 4 9 12 4 25 -17 27 -44 81 -33 63 14 -7 18 -21 19
-27 3 -4 -10 -8 -10 -15 0 -5 8 -13 14 -18 15 -5 1 -8 7 -8 14 1 7 -3 11 -10
10 -6 -1 -10 6 -8 16 3 20 2 20 -21 2z m89 -77 c-10 -6 -22 -6 -26 -2 -5 5 3
10 18 11 22 1 24 0 8 -9z"/>
<path d="M3076 2399 c10 -11 13 -23 8 -31 -13 -20 -13 -36 -1 -46 15 -11 47
-12 47 0 0 4 -5 8 -11 8 -5 0 -7 5 -4 10 3 6 2 10 -3 10 -5 0 -9 7 -9 16 0 15
1 15 13 0 9 -13 13 -14 18 -4 3 7 3 3 1 -8 -5 -17 -1 -21 17 -20 14 1 23 -5
23 -14 0 -9 -8 -14 -20 -13 -14 1 -21 -4 -22 -18 -2 -17 1 -19 13 -8 19 16 34
-3 27 -32 -4 -15 -12 -18 -37 -14 -20 4 -26 2 -17 -4 11 -7 11 -10 0 -17 -8
-5 -18 -9 -24 -9 -5 -1 -8 -7 -6 -15 9 -36 8 -70 -3 -61 -8 7 -11 -1 -12 -25
0 -19 3 -34 8 -34 5 0 1 -11 -8 -25 -9 -14 -20 -23 -24 -20 -5 3 -11 1 -15 -5
-3 -5 -1 -11 4 -11 6 -1 17 -2 24 -3 6 -1 11 -10 9 -20 -2 -10 1 -15 7 -12 5
3 17 -1 26 -10 9 -9 19 -13 23 -9 4 4 1 10 -6 12 -6 3 -9 10 -6 15 4 6 2 8 -3
5 -6 -4 -17 1 -24 10 -12 14 -12 15 -1 9 11 -7 12 -4 3 12 -15 28 -15 29 17
47 24 14 25 15 3 9 -20 -5 -23 -3 -18 10 5 12 3 15 -6 11 -6 -4 -3 0 7 9 10 8
23 13 27 10 5 -3 9 2 9 10 0 9 -5 15 -11 14 -6 -2 -13 8 -14 21 -2 23 -1 23
12 5 13 -17 14 -16 10 14 -5 34 -4 35 46 34 24 -1 26 2 16 14 -9 11 -9 18 -1
26 7 7 8 17 2 29 -15 28 29 65 45 39 3 -6 0 -13 -9 -16 -8 -3 -12 -12 -9 -20
5 -12 8 -12 17 3 7 10 13 28 13 39 1 20 -3 22 -38 19 -39 -3 -69 13 -69 38 0
8 -3 8 -9 -1 -7 -11 -10 -10 -15 3 -3 9 -4 20 -2 23 2 4 -9 7 -25 7 -26 1 -27
0 -13 -16z m20 -53 c0 -14 -3 -23 -7 -20 -6 3 -6 22 0 42 3 10 7 -2 7 -22z"/>
<path d="M3146 2318 c3 -4 9 -8 15 -8 5 0 9 4 9 8 0 5 -7 9 -15 9 -8 0 -12 -4
-9 -9z"/>
<path d="M3202 2307 c-7 -8 -7 -18 -2 -27 5 -9 5 -19 -2 -27 -7 -9 -7 -17 2
-28 11 -14 14 -13 24 1 10 13 12 13 12 -5 0 -11 -3 -18 -7 -15 -4 2 -9 -2 -12
-9 -3 -10 4 -14 23 -14 26 0 28 2 17 21 -6 12 -10 27 -9 34 2 6 -3 12 -11 12
-7 0 -19 -6 -27 -12 -12 -11 -12 -10 -1 4 9 12 10 22 2 37 -9 16 -8 22 6 30
10 6 13 11 7 11 -6 0 -16 -6 -22 -13z"/>
<path d="M3115 2300 c6 -9 4 -12 -6 -8 -10 4 -15 -1 -15 -12 0 -10 4 -16 8
-14 4 3 8 0 8 -6 0 -6 5 -8 10 -5 6 3 10 2 10 -3 0 -5 7 -9 15 -9 8 0 12 4 9
9 -3 4 0 8 6 8 6 0 8 5 4 11 -4 7 -10 7 -16 1 -16 -16 -41 -3 -28 13 8 10 8
15 -1 21 -8 5 -9 3 -4 -6z"/>
<path d="M3236 2275 c-3 -8 -1 -15 4 -15 13 0 22 18 11 24 -5 3 -11 -1 -15 -9z"/>
<path d="M3136 2195 c-3 -9 -2 -13 4 -10 6 3 10 1 10 -6 0 -8 4 -8 15 1 11 9
15 9 15 1 0 -7 4 -10 9 -6 5 3 13 0 17 -6 4 -7 3 -9 -4 -5 -6 3 -13 2 -16 -3
-3 -5 1 -11 9 -15 18 -7 31 12 17 26 -6 6 -8 18 -4 27 5 13 3 14 -10 3 -13
-10 -17 -10 -21 0 -4 10 -6 10 -6 -1 -1 -10 -4 -11 -15 -2 -11 9 -15 8 -20 -4z"/>
<path d="M3226 2154 c-5 -17 -12 -24 -21 -20 -17 6 -29 -9 -20 -25 5 -7 13 -5
25 6 15 14 18 14 23 1 3 -8 -2 -20 -11 -28 -15 -12 -16 -11 -3 5 8 10 9 17 3
17 -6 0 -13 -4 -17 -10 -3 -5 -12 -7 -20 -3 -11 4 -13 1 -9 -11 4 -10 0 -18
-10 -22 -9 -3 -13 -10 -10 -15 3 -5 9 -7 14 -4 8 5 8 -7 -2 -44 -1 -7 2 -15 8
-18 13 -4 18 29 12 72 -2 17 2 20 28 19 29 -1 32 1 28 25 -7 41 -7 45 1 64 4
9 3 17 -3 17 -5 0 -13 -12 -16 -26z"/>
<path d="M3135 2152 c-3 -10 1 -12 18 -8 12 3 16 3 9 0 -6 -3 -9 -11 -6 -16 4
-6 2 -8 -3 -5 -6 4 -14 0 -17 -9 -3 -8 -10 -13 -15 -10 -5 3 -11 0 -14 -8 -4
-10 0 -12 14 -9 28 8 23 -15 -6 -29 -25 -11 -34 -28 -16 -28 6 0 8 -9 6 -20
-2 -11 0 -18 5 -15 5 3 16 -8 25 -25 10 -20 22 -30 31 -26 8 3 14 1 14 -4 0
-9 38 -5 49 5 12 13 7 61 -9 77 -11 12 -17 14 -18 5 -4 -49 -22 -71 -38 -45
-13 21 -13 38 -1 38 8 0 7 3 -1 9 -16 10 -22 70 -9 78 6 3 7 2 4 -3 -3 -6 -2
-16 3 -24 7 -12 9 -11 9 5 -1 11 1 34 4 52 5 26 2 31 -14 30 -10 -1 -21 -7
-24 -15z m-5 -112 c0 -5 0 -13 -1 -16 0 -4 5 -10 11 -14 7 -4 8 -10 4 -13 -5
-3 -15 1 -22 9 -9 10 -9 14 -1 14 8 0 8 4 -1 15 -9 10 -9 15 -1 15 6 0 11 -4
11 -10z m40 -82 c0 -6 -6 -5 -15 2 -8 7 -15 14 -15 16 0 2 7 1 15 -2 8 -4 15
-11 15 -16z m43 7 c4 -8 1 -17 -5 -21 -7 -5 -8 -2 -3 6 6 10 4 12 -10 6 -15
-5 -16 -4 -5 9 15 19 16 19 23 0z"/>
<path d="M3027 2066 c-4 -10 -1 -13 8 -9 8 3 12 9 9 14 -7 12 -11 11 -17 -5z"/>
<path d="M2860 2041 c0 -6 4 -13 10 -16 6 -3 7 1 4 9 -7 18 -14 21 -14 7z"/>
<path d="M2830 2406 c0 -2 7 -7 16 -10 8 -3 12 -2 9 4 -6 10 -25 14 -25 6z"/>
<path d="M2881 2213 c7 -12 15 -20 18 -17 3 2 -3 12 -13 22 -17 16 -18 16 -5
-5z"/>
<path d="M2895 2070 c10 -11 20 -20 23 -20 3 0 -3 9 -13 20 -10 11 -20 20 -23
20 -3 0 3 -9 13 -20z"/>
<path d="M2936 2051 c-3 -5 2 -15 12 -22 15 -12 16 -12 5 2 -7 9 -10 19 -6 22
3 4 4 7 0 7 -3 0 -8 -4 -11 -9z"/>
<path d="M2790 2329 c0 -5 5 -7 10 -4 6 3 10 8 10 11 0 2 -4 4 -10 4 -5 0 -10
-5 -10 -11z"/>
<path d="M3405 2230 c3 -5 8 -10 11 -10 2 0 4 5 4 10 0 6 -5 10 -11 10 -5 0
-7 -4 -4 -10z"/>
<path d="M2789 2133 c-1 -4 -1 -12 0 -17 1 -5 -6 -5 -16 -2 -15 6 -16 5 -5 -5
10 -11 15 -10 28 3 11 11 12 18 5 22 -6 4 -12 4 -12 -1z"/>
<path d="M3400 2001 c0 -5 5 -13 10 -16 6 -3 10 -2 10 4 0 5 -4 13 -10 16 -5
3 -10 2 -10 -4z"/>
<path d="M2545 2811 c-4 -12 0 -30 9 -43 9 -12 16 -18 16 -12 0 5 -5 15 -11
21 -6 6 -9 17 -7 23 2 8 12 1 22 -15 19 -28 19 -29 -4 -47 -13 -10 -20 -21
-16 -25 6 -6 46 34 46 47 0 3 -11 21 -24 39 -23 30 -25 31 -31 12z"/>
<path d="M2579 2818 c7 -10 17 -15 23 -12 18 11 34 -16 31 -55 -1 -22 2 -43 6
-45 10 -7 8 110 -2 120 -4 5 -5 0 -2 -11 6 -19 6 -19 -8 -2 -10 12 -17 15 -22
7 -5 -8 -12 -7 -23 2 -15 12 -16 11 -3 -4z"/>
<path d="M2437 2807 c-3 -8 -2 -20 3 -26 5 -9 8 -4 8 13 0 29 -3 32 -11 13z"/>
<path d="M2475 2799 c-16 -7 -14 -8 9 -4 26 6 28 4 17 -9 -9 -11 -10 -16 -2
-16 6 0 11 5 11 11 0 5 6 7 13 3 8 -5 8 -2 -2 9 -15 19 -18 19 -46 6z"/>
<path d="M1975 2791 c-3 -5 -2 -12 3 -15 5 -3 9 1 9 9 0 17 -3 19 -12 6z"/>
<path d="M2193 2785 c0 -8 4 -12 9 -9 5 3 6 10 3 15 -9 13 -12 11 -12 -6z"/>
<path d="M2335 2790 c-4 -6 1 -7 11 -3 12 4 15 3 10 -5 -5 -8 -2 -10 9 -5 13
5 14 7 3 14 -17 11 -26 11 -33 -1z"/>
<path d="M2396 2779 c3 -5 10 -7 15 -4 5 4 9 -3 9 -15 0 -12 -4 -19 -9 -15 -5
3 -12 1 -15 -4 -4 -5 2 -8 11 -7 11 2 18 12 18 26 0 14 -7 24 -18 26 -9 1 -15
-2 -11 -7z"/>
<path d="M2605 2780 c3 -5 8 -10 11 -10 2 0 4 5 4 10 0 6 -5 10 -11 10 -5 0
-7 -4 -4 -10z"/>
<path d="M2255 2769 c-4 -6 -5 -12 -2 -15 2 -3 7 2 10 11 7 17 1 20 -8 4z"/>
<path d="M2302 2760 c0 -14 2 -19 5 -12 2 6 2 18 0 25 -3 6 -5 1 -5 -13z"/>
<path d="M1995 2760 c-3 -5 -1 -10 4 -10 6 0 11 5 11 10 0 6 -2 10 -4 10 -3 0
-8 -4 -11 -10z"/>
<path d="M2033 2755 c0 -8 4 -12 9 -9 4 3 8 9 8 15 0 5 -4 9 -8 9 -5 0 -9 -7
-9 -15z"/>
<path d="M2136 2758 c3 -5 10 -6 15 -3 13 9 11 12 -6 12 -8 0 -12 -4 -9 -9z"/>
<path d="M2277 2755 c-4 -8 -3 -16 1 -19 4 -3 9 4 9 15 2 23 -3 25 -10 4z"/>
<path d="M2370 2760 c0 -5 5 -10 10 -10 6 0 10 5 10 10 0 6 -4 10 -10 10 -5 0
-10 -4 -10 -10z"/>
<path d="M2455 2760 c-8 -13 4 -32 15 -25 5 3 13 -3 19 -12 5 -10 13 -14 17
-10 9 9 -27 37 -38 31 -5 -3 -8 -1 -8 5 0 5 6 12 13 14 9 4 9 6 0 6 -6 1 -15
-3 -18 -9z"/>
<path d="M2515 2759 c-4 -6 -4 -13 -1 -16 3 -4 6 -1 6 5 0 7 4 12 10 12 5 0 7
-8 3 -17 -5 -14 -3 -15 7 -6 7 6 9 16 6 22 -9 14 -23 14 -31 0z"/>
<path d="M1939 2748 c-5 -18 -6 -38 -1 -34 7 8 12 36 6 36 -2 0 -4 -1 -5 -2z"/>
<path d="M2195 2742 c3 -3 -1 -12 -7 -21 -8 -10 -4 -9 10 3 26 23 26 23 7 23
-8 0 -13 -3 -10 -5z"/>
<path d="M2356 2738 c5 -8 1 -9 -12 -4 -14 5 -16 4 -7 -4 7 -8 17 -9 28 -3 16
9 16 10 1 16 -12 5 -15 3 -10 -5z"/>
<path d="M2588 2717 c-26 -32 -26 -32 -47 -12 -19 16 -21 16 -15 2 3 -9 9 -17
14 -17 4 0 12 -10 18 -22 6 -13 11 -17 11 -10 1 20 4 26 17 40 18 17 23 15 21
-8 -1 -11 -5 -20 -9 -20 -4 0 -8 -5 -8 -11 0 -8 5 -8 15 1 10 9 15 9 15 1 0
-6 5 -11 12 -11 6 0 3 9 -7 20 -19 21 -7 28 13 8 7 -7 12 -8 12 -2 0 5 -9 15
-21 22 -14 9 -18 19 -14 32 8 26 5 24 -27 -13z"/>
<path d="M1710 2736 c0 -2 8 -10 18 -17 15 -13 16 -12 3 4 -13 16 -21 21 -21
13z"/>
<path d="M2219 2713 c-13 -17 -13 -17 6 -3 11 8 22 16 24 17 2 2 0 3 -6 3 -6
0 -17 -8 -24 -17z"/>
<path d="M2307 2719 c7 -9 10 -19 6 -22 -3 -4 -1 -7 5 -7 17 0 15 16 -5 31
-16 12 -17 12 -6 -2z"/>
<path d="M2436 2715 c4 -8 8 -15 10 -15 2 0 4 7 4 15 0 8 -4 15 -10 15 -5 0
-7 -7 -4 -15z"/>
<path d="M2155 2709 c-4 -6 -5 -12 -2 -15 2 -3 7 2 10 11 7 17 1 20 -8 4z"/>
<path d="M2470 2717 c0 -4 7 -19 16 -32 15 -23 15 -25 0 -25 -9 0 -16 -5 -16
-10 0 -7 7 -7 20 0 16 8 18 15 10 28 -18 31 -30 47 -30 39z"/>
<path d="M2410 2700 c-9 -6 -10 -10 -3 -10 6 0 15 5 18 10 8 12 4 12 -15 0z"/>
<path d="M2341 2674 c0 -11 3 -14 6 -6 3 7 2 16 -1 19 -3 4 -6 -2 -5 -13z"/>
<path d="M2450 2680 c0 -5 5 -10 10 -10 6 0 10 5 10 10 0 6 -4 10 -10 10 -5 0
-10 -4 -10 -10z"/>
<path d="M2381 2676 c2 -2 15 -9 29 -15 24 -11 24 -11 6 3 -16 13 -49 24 -35
12z"/>
<path d="M2236 2658 c3 -5 10 -6 15 -3 13 9 11 12 -6 12 -8 0 -12 -4 -9 -9z"/>
<path d="M1993 2435 c0 -8 4 -12 9 -9 5 3 6 10 3 15 -9 13 -12 11 -12 -6z"/>
<path d="M2080 2446 c0 -2 8 -10 18 -17 15 -13 16 -12 3 4 -13 16 -21 21 -21
13z"/>
<path d="M2234 2421 c0 -17 4 -31 9 -31 4 0 5 12 3 26 -7 38 -14 40 -12 5z"/>
<path d="M2491 2439 c-1 -9 6 -22 14 -29 8 -7 15 -9 15 -4 0 5 4 2 10 -6 5 -8
12 -11 17 -6 8 7 -19 28 -34 26 -4 -1 -10 7 -14 17 -6 15 -8 15 -8 2z"/>
<path d="M1913 2415 c0 -8 4 -12 9 -9 5 3 6 10 3 15 -9 13 -12 11 -12 -6z"/>
<path d="M2369 2409 c-12 -24 3 -50 16 -28 5 8 4 10 -3 5 -15 -9 -15 -1 -2 25
6 10 8 19 6 19 -3 0 -10 -9 -17 -21z"/>
<path d="M2405 2417 c-15 -12 -16 -15 -4 -22 8 -5 11 -5 7 0 -4 4 0 14 10 21
23 18 11 18 -13 1z"/>
<path d="M2473 2412 c0 -12 5 -22 9 -22 11 0 10 12 -2 30 -7 12 -9 10 -7 -8z"/>
<path d="M2310 2410 c8 -5 20 -10 25 -10 6 0 3 5 -5 10 -8 5 -19 10 -25 10 -5
0 -3 -5 5 -10z"/>
<path d="M2090 2400 c0 -5 5 -10 11 -10 5 0 7 5 4 10 -3 6 -8 10 -11 10 -2 0
-4 -4 -4 -10z"/>
<path d="M2153 2404 c3 -3 12 -6 20 -8 8 -1 23 -8 33 -16 18 -14 18 -14 2 6
-9 11 -27 20 -39 21 -12 1 -19 0 -16 -3z"/>
<path d="M2438 2403 c7 -3 16 -2 19 1 4 3 -2 6 -13 5 -11 0 -14 -3 -6 -6z"/>
<path d="M1933 2375 c0 -8 4 -12 9 -9 5 3 6 10 3 15 -9 13 -12 11 -12 -6z"/>
<path d="M2278 2383 c7 -3 16 -2 19 1 4 3 -2 6 -13 5 -11 0 -14 -3 -6 -6z"/>
<path d="M2419 2382 c-1 -4 -1 -11 0 -16 1 -5 -5 -6 -14 -2 -9 3 -13 2 -10 -4
3 -6 1 -10 -6 -10 -7 0 -10 -3 -7 -6 10 -9 49 16 42 27 -8 13 28 7 39 -6 5 -6
7 -4 5 4 -4 15 -47 26 -49 13z"/>
<path d="M2490 2370 c-7 -13 -7 -20 0 -20 5 0 10 7 10 15 0 9 6 12 15 9 8 -4
15 -13 15 -21 0 -8 -4 -12 -9 -9 -9 6 -26 -22 -23 -36 1 -5 -6 -8 -16 -8 -10
0 -18 8 -19 19 -1 14 3 18 15 14 14 -4 14 -3 2 5 -19 14 -30 6 -26 -21 4 -27
38 -34 56 -12 7 8 10 15 7 15 -3 0 6 12 20 28 14 15 29 26 34 25 5 -2 9 2 9 7
0 13 -13 13 -27 -1 -8 -8 -17 -8 -32 0 -17 9 -22 8 -31 -9z"/>
<path d="M1830 2376 c0 -2 8 -10 18 -17 15 -13 16 -12 3 4 -13 16 -21 21 -21
13z"/>
<path d="M2174 2366 c1 -8 5 -18 8 -22 4 -3 5 1 4 10 -1 8 -5 18 -8 22 -4 3
-5 -1 -4 -10z"/>
<path d="M2257 2355 c-3 -6 3 -11 12 -11 10 0 18 5 18 11 0 7 -6 12 -13 12 -7
0 -15 -5 -17 -12z"/>
<path d="M2350 2361 c0 -6 4 -13 10 -16 6 -3 7 1 4 9 -7 18 -14 21 -14 7z"/>
<path d="M2435 2349 c-4 -6 -5 -12 -2 -15 2 -3 7 2 10 11 7 17 1 20 -8 4z"/>
<path d="M2555 2350 c-3 -6 1 -7 9 -4 18 7 21 14 7 14 -6 0 -13 -4 -16 -10z"/>
<path d="M2154 2332 c11 -12 21 -20 24 -17 3 3 15 -3 26 -12 21 -18 21 -18 2
5 -11 12 -21 20 -24 17 -3 -3 -15 3 -26 12 -21 18 -21 18 -2 -5z"/>
<path d="M2575 2330 c3 -5 8 -10 11 -10 2 0 4 5 4 10 0 6 -5 10 -11 10 -5 0
-7 -4 -4 -10z"/>
<path d="M1939 2328 c-5 -18 -6 -38 -1 -34 7 8 12 36 6 36 -2 0 -4 -1 -5 -2z"/>
<path d="M2276 2318 c3 -5 10 -6 15 -3 13 9 11 12 -6 12 -8 0 -12 -4 -9 -9z"/>
<path d="M2370 2319 c0 -5 5 -7 10 -4 6 3 10 8 10 11 0 2 -4 4 -10 4 -5 0 -10
-5 -10 -11z"/>
<path d="M2550 2323 c16 -8 12 -23 -5 -17 -21 9 -19 -3 4 -15 15 -9 18 -7 17
11 0 12 -7 23 -14 24 -7 1 -8 0 -2 -3z"/>
<path d="M2234 2306 c1 -8 5 -18 8 -22 4 -3 5 1 4 10 -1 8 -5 18 -8 22 -4 3
-5 -1 -4 -10z"/>
<path d="M2397 2313 c-4 -3 -7 -11 -7 -17 0 -6 5 -5 12 2 6 6 9 14 7 17 -3 3
-9 2 -12 -2z"/>
<path d="M2307 2289 c4 -13 8 -18 11 -10 2 7 -1 18 -6 23 -8 8 -9 4 -5 -13z"/>
<path d="M2170 2296 c0 -2 8 -10 18 -17 15 -13 16 -12 3 4 -13 16 -21 21 -21
13z"/>
<path d="M2362 2280 c-18 -29 -15 -38 4 -12 9 13 14 25 12 27 -2 2 -9 -5 -16
-15z"/>
<path d="M2107 2279 c7 -7 15 -10 18 -7 3 3 -2 9 -12 12 -14 6 -15 5 -6 -5z"/>
<path d="M2075 2271 c-3 -5 -2 -12 3 -15 5 -3 9 1 9 9 0 17 -3 19 -12 6z"/>
<path d="M2153 2267 c0 -8 6 -14 14 -14 9 0 10 4 2 14 -6 7 -12 13 -14 13 -1
0 -2 -6 -2 -13z"/>
<path d="M2497 2268 c2 -5 13 -8 23 -8 10 0 21 3 23 8 3 4 -8 7 -23 7 -15 0
-26 -3 -23 -7z"/>
<path d="M2390 2259 c0 -5 5 -7 10 -4 6 3 10 8 10 11 0 2 -4 4 -10 4 -5 0 -10
-5 -10 -11z"/>
<path d="M2438 2262 c13 -4 23 -11 23 -17 -1 -15 22 -12 25 3 1 7 0 8 -3 2 -7
-14 -24 -13 -20 2 1 7 -9 14 -23 15 -24 2 -24 2 -2 -5z"/>
<path d="M2555 2260 c-8 -13 3 -30 18 -29 9 0 9 2 0 6 -7 2 -13 9 -13 14 0 6
5 7 10 4 6 -3 10 -1 10 4 0 14 -17 14 -25 1z"/>
<path d="M2190 2257 c0 -2 6 -10 14 -16 11 -9 16 -9 22 1 4 7 4 10 -1 6 -4 -4
-14 -3 -22 3 -7 6 -13 9 -13 6z"/>
<path d="M2372 2243 c2 -10 -3 -24 -12 -31 -13 -11 -12 -12 7 -3 15 8 20 17
16 31 -7 25 -16 27 -11 3z"/>
<path d="M2322 2241 c-10 -6 -10 -10 2 -20 11 -9 16 -9 22 0 5 8 3 9 -6 4 -10
-6 -12 -4 -7 8 7 19 7 20 -11 8z"/>
<path d="M2417 2233 c5 -12 3 -14 -7 -8 -9 5 -11 4 -6 -4 4 -6 12 -9 17 -6 12
8 12 35 -1 35 -5 0 -6 -7 -3 -17z"/>
<path d="M2530 2242 c0 -8 9 -25 20 -39 26 -33 26 -23 0 19 -11 18 -20 27 -20
20z"/>
<path d="M2275 2200 c0 -15 5 -27 10 -27 6 0 10 12 10 27 0 15 -4 27 -10 27
-5 0 -10 -12 -10 -27z"/>
<path d="M2437 2215 c-9 -23 11 -28 38 -11 22 15 25 15 25 1 0 -18 16 -20 26
-3 4 6 3 8 -3 5 -6 -4 -14 0 -17 9 -5 14 -8 14 -28 0 -28 -20 -39 -20 -32 -1
4 8 4 15 1 15 -3 0 -7 -7 -10 -15z"/>
<path d="M2254 2200 c0 -13 4 -16 10 -10 7 7 7 13 0 20 -6 6 -10 3 -10 -10z"/>
<path d="M2576 2205 c4 -8 8 -15 10 -15 2 0 4 7 4 15 0 8 -4 15 -10 15 -5 0
-7 -7 -4 -15z"/>
<path d="M2380 2200 c-12 -7 -10 -9 7 -7 12 0 19 5 17 9 -6 10 -6 10 -24 -2z"/>
<path d="M2408 2183 c-21 -5 -23 -19 -5 -29 6 -4 9 -4 5 1 -4 4 0 14 10 21 18
14 17 14 -10 7z"/>
<path d="M2470 2180 c0 -6 5 -8 10 -5 6 3 10 -2 10 -12 0 -10 8 -27 16 -38 10
-12 14 -14 12 -5 -3 8 4 27 14 43 11 15 15 27 9 27 -6 0 -11 -5 -11 -11 0 -5
-5 -7 -12 -3 -7 4 -8 3 -4 -4 4 -7 4 -18 0 -24 -6 -9 -10 -5 -14 11 -6 25 -30
42 -30 21z"/>
<path d="M2575 2170 c-4 -6 -12 -7 -18 -4 -7 4 -9 4 -5 -1 4 -4 0 -14 -10 -22
-16 -14 -16 -14 1 -9 18 6 24 -9 7 -17 -6 -3 -5 -4 2 -3 7 2 13 11 13 20 0 10
9 24 19 32 11 8 15 14 9 14 -7 0 -15 -5 -18 -10z"/>
<path d="M2438 2163 c7 -3 16 -2 19 1 4 3 -2 6 -13 5 -11 0 -14 -3 -6 -6z"/>
<path d="M2600 2121 c0 -19 22 -23 38 -7 11 10 12 16 4 16 -7 0 -12 -4 -12
-10 0 -5 -5 -10 -11 -10 -5 0 -7 5 -4 10 3 6 1 10 -4 10 -6 0 -11 -4 -11 -9z"/>
<path d="M2575 2110 c-3 -5 -1 -10 4 -10 6 0 11 5 11 10 0 6 -2 10 -4 10 -3 0
-8 -4 -11 -10z"/>
</g>
</svg>
