<?xml version="1.0" standalone="no"?>
<!DOCTYPE svg PUBLIC "-//W3C//DTD SVG 20010904//EN"
 "http://www.w3.org/TR/2001/REC-SVG-20010904/DTD/svg10.dtd">
<svg version="1.0" xmlns="http://www.w3.org/2000/svg"
 width="500.000000pt" height="500.000000pt" viewBox="0 0 500.000000 500.000000"
 preserveAspectRatio="xMidYMid meet">
<metadata>
Created by potrace 1.11, written by Peter Selinger 2001-2013
</metadata>
<g transform="translate(0.000000,500.000000) scale(0.100000,-0.100000)"
fill="#000000" stroke="none">
<path d="M2470 3963 c0 -13 -4 -23 -10 -23 -5 0 -10 -9 -10 -20 0 -11 -4 -20
-10 -20 -5 0 -10 -6 -10 -14 0 -7 -7 -19 -16 -26 -45 -38 -52 -127 -13 -169
25 -26 24 -37 -5 -56 -26 -18 -68 -91 -86 -151 -11 -37 -17 -42 -49 -48 -20
-3 -49 -6 -65 -6 -16 0 -43 -4 -60 -9 -103 -31 -148 -42 -154 -37 -3 3 -12 0
-21 -8 -9 -8 -20 -15 -26 -17 -12 -2 -34 -9 -55 -16 -8 -4 -19 -7 -25 -9 -5
-1 -27 -9 -47 -18 -21 -9 -41 -16 -45 -17 -5 0 -15 -7 -25 -15 -9 -9 -22 -17
-30 -18 -7 -1 -35 -13 -63 -26 -62 -29 -54 -26 -92 -35 -18 -4 -33 -10 -33
-14 0 -11 -72 -11 -86 0 -8 6 -21 9 -29 5 -8 -3 -26 0 -40 6 -19 8 -35 8 -64
-1 -32 -9 -42 -19 -52 -46 -7 -19 -17 -35 -21 -35 -11 0 4 -63 19 -78 7 -7 13
-21 13 -31 0 -24 -232 -567 -253 -591 -10 -12 -16 -33 -15 -53 l3 -32 -194 -3
c-139 -2 -197 1 -202 9 -9 15 -55 4 -63 -16 -3 -9 0 -15 7 -15 15 0 42 -94 32
-110 -3 -5 1 -10 9 -10 9 0 19 -12 22 -27 4 -15 13 -34 21 -41 7 -7 13 -24 13
-38 0 -13 5 -24 10 -24 6 0 10 -9 10 -19 0 -10 7 -21 15 -25 8 -3 15 -17 15
-31 0 -14 4 -25 9 -25 5 0 12 -11 15 -25 4 -14 11 -25 16 -25 6 0 10 -5 10
-12 0 -6 10 -22 21 -34 19 -21 20 -26 9 -54 -7 -16 -16 -30 -20 -30 -4 0 -22
-33 -39 -74 -20 -45 -44 -82 -62 -95 -40 -29 -40 -77 -1 -114 15 -15 36 -27
46 -27 10 0 54 -16 99 -36 283 -125 604 -148 932 -68 136 33 123 28 415 168
32 15 49 61 32 84 -7 9 -20 29 -30 44 -9 16 -24 28 -32 28 -15 1 -161 281
-160 308 0 6 -4 12 -8 12 -5 0 -28 39 -52 88 -24 48 -47 89 -50 92 -4 3 -27
48 -52 100 -41 86 -46 105 -52 195 -10 137 -12 145 -46 145 -16 0 -30 -5 -32
-11 -7 -21 -48 1 -55 29 -3 15 -15 41 -25 57 -10 17 -22 41 -28 55 -5 14 -14
33 -20 42 -5 9 -13 36 -16 59 -5 29 -13 43 -25 46 -17 5 -23 16 -20 36 1 4 -6
10 -14 13 -8 4 -15 15 -15 25 0 10 -4 19 -10 19 -23 0 -8 30 18 35 73 16 178
48 282 86 63 23 164 54 224 70 108 28 313 56 339 46 8 -3 17 -24 21 -47 4 -24
21 -60 40 -85 l33 -44 9 -178 c18 -358 6 -707 -32 -948 -24 -149 -27 -202 -16
-247 23 -90 24 -103 3 -129 -12 -13 -24 -29 -29 -34 -20 -24 -42 -113 -42
-166 0 -114 -42 -153 -160 -148 -33 1 -63 0 -66 -4 -3 -3 -11 -4 -18 -1 -6 2
-26 -10 -45 -27 l-34 -31 -116 3 c-122 3 -137 -1 -164 -41 -21 -31 -22 -54 -1
-74 14 -14 102 -16 820 -16 l804 0 0 33 c0 37 -27 73 -67 88 -13 5 -74 9 -134
9 -60 0 -109 4 -109 8 0 22 -68 45 -157 52 -126 9 -135 18 -144 138 -6 92 -35
164 -87 221 -15 16 -13 33 14 102 17 43 17 52 1 160 -15 103 -35 325 -53 577
-3 51 0 219 6 375 12 268 14 283 35 304 23 23 50 80 59 123 14 68 140 92 501
96 149 2 284 6 301 9 40 7 58 -13 49 -55 -4 -16 -10 -28 -15 -25 -4 3 -13 -9
-19 -25 -5 -17 -14 -30 -19 -30 -8 0 -14 -13 -22 -48 -3 -13 -30 -23 -43 -16
-9 5 -9 4 1 -7 6 -7 12 -19 12 -26 0 -20 -35 -15 -55 7 -10 11 -21 20 -25 20
-12 0 -30 -50 -30 -85 0 -19 -4 -35 -10 -35 -5 0 -10 -21 -10 -47 0 -65 -9
-91 -31 -98 -10 -3 -21 -16 -24 -28 -12 -40 -30 -77 -37 -77 -5 0 -8 -7 -8
-15 0 -8 -8 -15 -17 -15 -13 0 -18 -8 -19 -28 -1 -16 -11 -40 -23 -54 -13 -15
-23 -30 -24 -35 0 -4 -22 -39 -47 -78 -26 -38 -55 -86 -66 -105 -10 -19 -22
-36 -26 -38 -5 -2 -8 -7 -8 -11 0 -5 -22 -42 -50 -84 -27 -42 -50 -79 -50 -83
0 -4 -16 -20 -35 -37 -30 -25 -35 -36 -35 -73 0 -40 3 -46 33 -58 336 -144
467 -176 710 -176 231 1 449 51 645 149 42 21 89 41 104 45 37 9 58 32 58 66
0 30 -43 90 -64 90 -13 0 -46 61 -46 85 0 14 22 44 63 87 9 10 17 22 17 27 0
18 51 111 61 111 5 0 14 12 20 28 22 60 34 82 45 82 6 0 17 24 23 53 22 95 23
92 -39 90 -114 -6 -188 -4 -285 5 -145 14 -161 19 -176 56 -7 17 -17 36 -21
41 -17 21 -168 337 -168 350 0 8 -4 15 -8 15 -5 0 -21 27 -37 60 -24 51 -27
63 -17 85 7 15 9 38 6 53 -7 28 -70 92 -90 92 -6 0 -25 3 -43 6 -26 5 -32 3
-40 -17 -5 -13 -19 -34 -31 -47 -21 -22 -27 -23 -133 -19 -62 3 -141 8 -177
12 -90 10 -436 12 -487 2 -40 -7 -43 -6 -43 16 0 30 -63 130 -95 151 -30 20
-32 37 -5 61 44 40 46 104 3 155 -10 12 -26 31 -35 42 -10 12 -18 29 -18 38 0
10 -9 28 -20 41 l-19 24 -1 -22z m1255 -853 c47 -93 82 -170 78 -170 -4 0 -3
-4 2 -8 15 -10 35 -49 35 -67 0 -10 -10 -15 -35 -15 -19 0 -35 5 -35 10 0 6
-9 10 -19 10 -11 0 -23 5 -26 10 -3 6 -17 10 -29 10 -13 0 -29 7 -36 15 -7 8
-16 12 -21 9 -5 -3 -22 4 -38 15 -16 12 -34 21 -40 21 -6 0 -11 5 -11 10 0 6
-6 10 -12 10 -35 1 -98 90 -65 90 7 0 25 21 41 48 71 116 109 172 117 172 4 0
46 -76 94 -170z m-2297 -274 c39 -77 68 -144 65 -149 -3 -6 -1 -7 5 -3 7 4 12
2 12 -4 0 -6 16 -33 35 -61 19 -28 35 -54 35 -58 0 -9 -20 -37 -20 -28 0 11
-60 -25 -60 -36 0 -4 -5 -5 -11 -1 -6 3 -14 3 -18 -2 -10 -15 -82 -45 -92 -38
-5 3 -8 0 -7 -6 2 -7 -5 -14 -15 -15 -10 -2 -26 -7 -35 -11 -9 -4 -24 -8 -32
-10 -22 -4 -92 -25 -118 -35 -13 -5 -36 -9 -52 -9 -23 0 -29 4 -26 18 9 40 19
61 31 66 7 2 15 16 19 30 4 15 18 52 33 84 14 31 49 113 78 182 82 194 98 231
100 228 1 -2 34 -66 73 -142z m2045 -122 c36 -16 89 -29 127 -31 68 -5 91 -16
74 -33 -27 -27 -154 -31 -202 -6 -38 19 -91 96 -67 96 3 0 34 -12 68 -26z
m-233 -191 c1 -117 20 -262 40 -306 7 -15 11 -30 8 -33 -8 -8 -358 -18 -358
-10 0 6 16 33 95 156 23 36 74 118 114 183 40 64 79 117 87 117 11 0 14 -21
14 -107z m714 60 c47 -33 86 -80 86 -104 0 -5 -16 -9 -35 -9 -24 0 -35 5 -35
14 0 8 -9 18 -20 21 -11 4 -28 17 -36 30 -16 25 -30 85 -19 85 4 0 30 -16 59
-37z m196 -93 c0 -5 -5 -12 -11 -16 -12 -7 -31 15 -23 28 6 9 34 -1 34 -12z
m-454 -140 c21 -7 44 -16 50 -21 6 -5 14 -6 17 -2 4 3 7 -1 7 -10 0 -9 3 -16
8 -15 14 4 51 -22 57 -42 4 -11 10 -18 14 -15 8 4 35 -44 29 -51 -2 -1 -38 -4
-80 -6 -51 -1 -82 2 -90 10 -6 6 -20 12 -29 12 -10 0 -19 4 -21 9 -1 4 -28 11
-58 15 -30 3 -66 8 -80 12 -14 3 -51 7 -82 7 -32 1 -58 4 -58 8 0 3 9 14 20
24 15 14 20 15 21 4 0 -8 4 -4 9 8 9 22 58 49 115 63 41 9 103 5 151 -10z
m-2123 -95 c35 -14 16 -32 -49 -44 -37 -6 -88 -23 -115 -36 -83 -42 -102 -30
-46 31 51 55 140 76 210 49z m237 -158 c19 -39 53 -107 76 -149 23 -43 40 -78
37 -78 -3 0 -1 -6 5 -12 6 -7 28 -49 51 -93 l40 -80 -27 -7 c-15 -3 -93 -8
-175 -10 -129 -3 -146 -1 -141 12 15 33 61 236 59 258 -1 12 1 22 4 22 6 0 10
47 10 148 0 84 17 81 61 -11z m-733 18 c42 -28 28 -41 -42 -40 -36 0 -65 3
-65 7 0 4 5 19 12 33 10 23 16 26 42 21 16 -4 40 -13 53 -21z m454 -277 c-15
-49 -47 -114 -55 -111 -3 1 -20 -11 -38 -27 -17 -16 -34 -27 -37 -25 -2 3 -11
-1 -20 -9 -11 -10 -46 -15 -116 -16 -55 -1 -104 -1 -110 0 -5 1 -12 2 -15 2
-3 0 -30 17 -60 37 -39 26 -56 44 -58 62 -3 23 0 25 42 24 24 0 47 -3 51 -7 9
-9 167 1 180 12 17 13 127 42 141 36 7 -3 11 0 8 7 -4 12 86 70 95 61 2 -2 -1
-23 -8 -46z m-678 -112 c3 4 9 -5 13 -19 3 -15 10 -25 14 -24 4 1 9 -2 10 -8
1 -5 6 -15 11 -21 10 -13 -30 -24 -86 -24 -29 0 -33 3 -31 25 2 13 9 31 16 40
7 8 9 15 6 15 -4 0 -1 10 5 22 11 20 13 20 24 5 6 -9 15 -14 18 -11z"/>
</g>
</svg>
