<svg id="Layer_1" xmlns="http://www.w3.org/2000/svg" viewBox="0 0 612 792"><style>.st0{opacity:0.4;} .st1{fill:url(#SVGID_1_);} .st2{fill:#094E9C;} .st3{fill:#FFFFFF;}</style><g class="st0"><linearGradient id="SVGID_1_" gradientUnits="userSpaceOnUse" x1="312.567" y1="381.56" x2="398.717" y2="404.685"><stop offset=".247" stop-color="#FFF"/><stop offset="1" stop-color="#005D90"/></linearGradient><path class="st1" d="M222.6 402.8c61-8.2 129.3 0 129.3 0 23.7 2.2 33.7 8.9 41.5 28 15.8-38.5 0-73 0-73-4.4 17.6-17.3 29.5-41.5 29.5 0 0-21.1 4.4-39.4-5.4"/></g><path class="st2" d="M378.4 385.4c0 .1.3.1 0 .3-.6.4-1.2.6-1.8.8-.3.1-.6.2-.9.4-.3.1-.6.2-.9.4v.2c-1 .3-2.1.6-3.2 1-1 .3-2 .6-3.1.8-1 .3-2 .6-3.1.7.1.1.1.1-.1.2-.9.2-2.1.3-3.3.5-.2 0-.4.1-.5.1-.1.1-.2.1-.2.2-.6.1-1.1.1-1.6.1-1.6.2-3.1.4-4.7.6-1.6.1-3.2.1-4.9.2-.8 0-1.6.1-2.5.1-.8 0-1.7-.1-2.5-.1-1.7-.1-3.4-.1-5.2-.2-1.5-.1-3-.2-4.4-.4-1.1-.1-2.3-.4-3.4-.6-1.2-.3-2.3-.6-3.4-.8.2.6-4.8-.3-4 .5-.7-.2-1.5-.4-2.2-.5-.7-.2-1.2-.3-1.3-.2-.4.4-1.6.6-5.3-.2-1.4-.4-3.5-1.2-4.1-1.2-.8-.1 1.7.9.9.8l7.8 2.4c1.3.4 2.6.7 3.9 1l3.9.9c2.6.7 5.3 1 8 1.5 1.3.2 2.7.5 4.1.6 1.4.1 2.7.3 4.1.4.9 0 3.2.3 6.3.2h2.4c.8 0 1.7.1 2.6 0 1.8-.1 3.7-.3 5.6-.4 1.9-.3 3.9-.6 5.7-.9 1.9-.4 3.7-.9 5.3-1.4 1.6-.5 3.1-1.1 4.4-1.6.7-.2 1.2-.5 1.7-.8.5-.3 1-.5 1.3-.7l.5-.3c.4-.2.8-.4 1.3-.6.4-.3.8-.5 1.2-.8.8-.6 1.7-1.1 2.5-1.7 1.5-1.4 3-2.6 3.9-3.9.4-.6.9-1.2 1.3-1.8.4-.6.7-1.3 1.1-1.9-.5.5-.9 1-1.3 1.3.8-1.2 1.7-2.4 1.9-3 1.3-3 .1-1.4-.7-.6-.3.3-.3.2-.4.1-.1-.1-.2-.1-.6.4.3-.4.4-.7.6-1 .2-.3.3-.6.5-1-.1-.1-.4.5-.6 1.1-.3.6-.6 1-.6.7.5-.7.8-1.6 1.3-2.4-.3.2-1.5 2.7-1.7 2.4.1-.1.2-.3.4-.5.1-.2.3-.5.5-.7.3-.5.6-1 .5-1.1 0-.1-.4.7-.7 1.1.3-.6.5-1.2.7-1.6.2-.4.2-.9.3-1.1 0-.2 0-.3-.1-.1-.1.1-.1.2-.2.4s-.2.4-.4.7c.2-.3.4-.9.6-1.4l.6-1.5c-.2.4-.5 1.2-.7 1.6l.6-1.5-.2.2c-.2.4-.3.7-.5 1.1l.4-1c-.2.2-.4.5-.6.8-.6 1.3-1.4 2-1.6 2.5l-.4.8-.6.8-1.1 1.5c-.4.5-.9.9-1.3 1.4-.5.5-.8 1-1.4 1.4-2 1.6-4.1 3.1-6.4 4.3z"/><path class="st2" d="M291.5 399c0-.1-1.2-.2.7-.2 3-.1 5.7.1 8.4.3 2.7.2 5.4.3 8.4.5.1 0 .3-.1.4-.1 2.3.2 4.7.4 7.1.6 2.4.3 4.8.6 7.3.9 9 1 18 2.3 26.8 4.1-.2-.1-.3-.2.6 0 .9.2 1.9.4 3 .6 1.1.3 2.2.5 3.4.8 1.2.3 2.3.7 3.6 1 1.2.4 2.5.8 3.7 1.3.7.3 1.5.5 2.2.8.6.2.7.2.8.2 2.2.9 4.1 1.9 5.8 2.8 3.9 2.1 7.6 4.5 10.8 7.7 3.2 3.1 5.8 6.9 7.2 11.5l1.6 5.2 1.9-5c3.1-8.1 5.3-16.8 6.2-26 .9-9.2.5-18.7-1.3-28.3-1.2-6.1-2.9-12.2-5.1-17.8-.2-.6-.5-1.2-.8-2l-.9-2-.5 2.1c-1 4-2.7 8.4-5.2 12.1-2.5 3.7-5.9 6.8-9.2 8.9.2 0 .1.1-.3.4-.3.3-.9.7-1.6 1.1-.7.4-1.6 1-2.6 1.4-1 .4-2 1-3.1 1.4-1.1.4-2.1.8-3.1 1.1-1 .3-1.8.5-2.5.7-1.3.4-1.8.6-.7.6-1 .2-2.1.3-3.2.5s-2.3.2-3.4.3c-1.1.1-2.2.2-3.2.2s-1.9.1-2.7.1h.1c-1.4.2-2.2.2-2.4.3-.7.3-2.1.6-5.4.8-1.6.1-3.7.1-6.3 0-2.6-.1-5.8-.5-9.7-1.2-3-.6-6.8-1.8-10-3s-5.8-2.6-6.8-3.1c-1.5-.7.1.3 2 1.2 1.8 1 3.6 1.8 2 1.2 5.8 2.5 11.9 4.2 18.1 5.1 3.1.5 6.2.7 9.3.9 1.5.1 3.1.1 4.6 0 1.6 0 3.1-.1 4.7-.3h-.3c4.7-.1 9.4-.4 14.1-1.4 4.7-1 9.3-2.6 13.5-5.2 4.2-2.5 7.9-6 10.6-10.1 2.8-4.1 4.6-8.7 5.8-13.3l-4.8.4c.3.7.6 1.4.9 2.2.3.8.6 1.5.8 2.3.6 1.5 1 3.1 1.5 4.7.4 1.6.9 3.2 1.2 4.8l.5 2.4.4 2.5c1.1 6.6 1.6 13.3 1.4 20 0 1.1-.1 2.8-.2 4.8-.1 1-.2 2.1-.4 3.4-.2 1.2-.2 2.6-.5 3.9-.9 5.6-2.6 12.5-5.5 19.9l4.4.3c-1.4-4.9-4.3-9.6-8.1-13.4-3.8-3.8-8.4-6.9-13.4-9.4-4.9-2.5-10.1-4.4-15.5-5.8-5.3-1.4-10.6-2.4-15.7-3.3-20.6-3.6-39.1-4.4-48.3-4.7h-2.4c-14.5-.3-32.1.7-44.2 2.6-1.4.2-2.8.3-4.2.6-1.4.3-2.8.5-4.2.8-2.8.5-5.6 1.1-8.4 1.6 2.6-.3 5.1-.6 7.2-.9-2.9.5-5.7.9-8.1 1.4-2.4.5-4.4 1-5.4 1.3-12 2.9-5.1 1.7-.4 1 3.4-.6-1.1.7 4.2-.3-3.7.8-5.6 1.2-9.4 2-.4.3 11.5-2.6 9-1.8-3.6.7-7.6 1.7-11.3 2.5 1.3-.2 12.9-2.8 12.4-2.4-2 .5-10.6 2-11.2 2.4-.1.1 3.6-.7 5.5-1.1-1.4.3-2.8.6-4 .9-.6.1-1.2.3-1.8.4-.6.2-1.1.3-1.6.5-2 .6-3.5 1.1-4.4 1.4-1.7.6-.6.4 4.6-.9-3.6 1-8.7 2.3-12.5 3.4 1.9-.5 5.2-1.4 7-1.9-2.2.6-4.3 1.2-6.5 1.8.4-.1.8-.1 1.2-.2 1.6-.4 3.3-.8 4.9-1.3-1.4.4-2.9.8-4.3 1.2 1.1-.2 2.4-.5 3.7-.8 2.6-.6 5.1-1.2 7.4-1.7 2.2-.5 4.2-.8 5.6-1.1l8.4-1.8c2.8-.5 5.7-.9 8.5-1.4 5.7-1 11.4-1.5 17.2-2.2 11.4-.3 22.9-1 34.4-.7z"/><path class="st3" d="M389.5 357.7l-.5 5 2.2.4s.8-2.4 1.4-5c.6-2.5-3.1-.4-3.1-.4zM397.2 357.4l1.3 4.9-2.1.7s-1.2-2.3-2.2-4.7c-1-2.4 3-.9 3-.9z"/></svg>